# MagicaVoxel @ Ephtracy

# group
o Lleg1

# material
mtllib pracGenny-6-Lleg1.mtl
usemtl palette

# normals
vn -1 0 0
vn 1 0 0
vn 0 0 1
vn 0 0 -1
vn 0 -1 0
vn 0 1 0

# texcoords
vt 0.0253906 0.5
vt 0.0292969 0.5
vt 0.826172 0.5
vt 0.830078 0.5

# verts
v -0.3 1.6 0.4
v -0.3 1.6 0.2
v -0.3 1.6 0.1
v -0.3 2.1 0.4
v -0.3 2.1 0.2
v -0.3 2.1 0.1
v -0.3 2.5 0.4
v -0.3 2.5 0.2
v -0.3 2.5 0.1
v 1.49012e-07 1.6 0.4
v 1.49012e-07 1.6 0.2
v 1.49012e-07 1.6 0.1
v 1.49012e-07 2.1 0.4
v 1.49012e-07 2.1 0.2
v 1.49012e-07 2.1 0.1
v 1.49012e-07 2.5 0.4
v 1.49012e-07 2.5 0.1
v -0.3 1.6 0.4
v -0.3 2.1 0.4
v -0.3 2.5 0.4
v -0.0999998 2.1 0.4
v -0.0999998 2.5 0.4
v 1.49012e-07 1.6 0.4
v 1.49012e-07 2.1 0.4
v 1.49012e-07 2.5 0.4
v -0.3 1.6 0.1
v -0.3 2.1 0.1
v -0.3 2.5 0.1
v 1.49012e-07 1.6 0.1
v 1.49012e-07 2.1 0.1
v 1.49012e-07 2.5 0.1
v -0.3 1.6 0.4
v 1.49012e-07 1.6 0.4
v -0.3 1.6 0.2
v 1.49012e-07 1.6 0.2
v -0.3 1.6 0.1
v 1.49012e-07 1.6 0.1
v -0.3 2.5 0.4
v -0.0999998 2.5 0.4
v 1.49012e-07 2.5 0.4
v -0.2 2.5 0.3
v -0.0999998 2.5 0.3
v -0.3 2.5 0.2
v -0.2 2.5 0.2
v -0.0999998 2.5 0.2
v -0.3 2.5 0.1
v 1.49012e-07 2.5 0.1

# faces
f 4/2/1 2/2/1 1/2/1
f 5/1/1 3/1/1 2/1/1
f 5/2/1 2/2/1 4/2/1
f 6/1/1 3/1/1 5/1/1
f 7/4/1 5/4/1 4/4/1
f 8/3/1 6/3/1 5/3/1
f 8/4/1 5/4/1 7/4/1
f 9/3/1 6/3/1 8/3/1
f 10/2/2 11/2/2 13/2/2
f 11/1/2 12/1/2 14/1/2
f 13/2/2 11/2/2 14/2/2
f 14/1/2 12/1/2 15/1/2
f 13/3/2 14/3/2 16/3/2
f 14/3/2 15/3/2 16/3/2
f 16/3/2 15/3/2 17/3/2
f 21/2/3 19/2/3 18/2/3
f 21/4/3 20/4/3 19/4/3
f 22/4/3 20/4/3 21/4/3
f 23/2/3 21/2/3 18/2/3
f 24/3/3 22/3/3 21/3/3
f 24/2/3 21/2/3 23/2/3
f 25/3/3 22/3/3 24/3/3
f 26/1/4 27/1/4 29/1/4
f 27/3/4 28/3/4 30/3/4
f 29/1/4 27/1/4 30/1/4
f 30/3/4 28/3/4 31/3/4
f 34/2/5 33/2/5 32/2/5
f 35/2/5 33/2/5 34/2/5
f 36/1/5 35/1/5 34/1/5
f 37/1/5 35/1/5 36/1/5
f 38/4/6 39/4/6 41/4/6
f 39/3/6 40/3/6 42/3/6
f 41/4/6 39/4/6 42/4/6
f 38/4/6 41/4/6 43/4/6
f 41/2/6 42/2/6 44/2/6
f 43/4/6 41/4/6 44/4/6
f 42/3/6 40/3/6 45/3/6
f 44/2/6 42/2/6 45/2/6
f 43/3/6 44/3/6 46/3/6
f 44/3/6 45/3/6 46/3/6
f 45/3/6 40/3/6 47/3/6
f 46/3/6 45/3/6 47/3/6
