# MagicaVoxel @ Ephtracy

# group
o hand

# material
mtllib pracGenny-16-hand.mtl
usemtl palette

# normals
vn -1 0 0
vn 1 0 0
vn 0 0 -1
vn 0 0 1
vn 0 -1 0
vn 0 1 0

# texcoords
vt 0.0292969 0.5

# verts
v -0.2 3.3 1.8
v -0.2 3.3 2.2
v -0.2 3.7 1.8
v -0.2 3.7 2.2
v 5.96046e-08 3.3 1.8
v 5.96046e-08 3.3 1.9
v 5.96046e-08 3.7 1.8
v 5.96046e-08 3.7 1.9
v 0.1 3.3 1.9
v 0.1 3.3 2.2
v 0.1 3.7 1.9
v 0.1 3.7 2.2
v -0.2 3.3 1.8
v -0.2 3.7 1.8
v 5.96046e-08 3.3 1.8
v 5.96046e-08 3.7 1.8
v 5.96046e-08 3.3 1.9
v 5.96046e-08 3.7 1.9
v 0.1 3.3 1.9
v 0.1 3.7 1.9
v -0.2 3.3 2.2
v -0.2 3.7 2.2
v 0.1 3.3 2.2
v 0.1 3.7 2.2
v -0.2 3.3 1.8
v 5.96046e-08 3.3 1.8
v 5.96046e-08 3.3 1.9
v 0.1 3.3 1.9
v -0.2 3.3 2.2
v 0.1 3.3 2.2
v -0.2 3.7 1.8
v 5.96046e-08 3.7 1.8
v 5.96046e-08 3.7 1.9
v 0.1 3.7 1.9
v -0.2 3.7 2.2
v 0.1 3.7 2.2

# faces
f 1/1/1 2/1/1 3/1/1
f 3/1/1 2/1/1 4/1/1
f 7/1/2 6/1/2 5/1/2
f 8/1/2 6/1/2 7/1/2
f 11/1/2 10/1/2 9/1/2
f 12/1/2 10/1/2 11/1/2
f 13/1/3 14/1/3 15/1/3
f 15/1/3 14/1/3 16/1/3
f 17/1/3 18/1/3 19/1/3
f 19/1/3 18/1/3 20/1/3
f 23/1/4 22/1/4 21/1/4
f 24/1/4 22/1/4 23/1/4
f 25/1/5 26/1/5 27/1/5
f 25/1/5 27/1/5 29/1/5
f 27/1/5 28/1/5 29/1/5
f 29/1/5 28/1/5 30/1/5
f 33/1/6 32/1/6 31/1/6
f 35/1/6 33/1/6 31/1/6
f 35/1/6 34/1/6 33/1/6
f 36/1/6 34/1/6 35/1/6
