# MagicaVoxel @ Ephtracy

# group
o Lleg2

# material
mtllib pracGenny-10-Lleg2.mtl
usemtl palette

# normals
vn -1 0 0
vn 1 0 0
vn 0 0 1
vn 0 0 -1
vn 0 -1 0
vn 0 1 0

# texcoords
vt 0.0214844 0.5
vt 0.0253906 0.5
vt 0.0292969 0.5
vt 0.392578 0.5
vt 0.396484 0.5
vt 0.958984 0.5
vt 0.970703 0.5

# verts
v -0.3 0.7 -9.68575e-08
v -0.3 0.7 -0.1
v -0.3 0.7 -0.2
v -0.3 0.7 -0.3
v -0.3 1.1 -0.1
v -0.3 1.1 -0.2
v -0.3 1.2 -9.68575e-08
v -0.3 1.2 -0.1
v -0.3 1.2 -0.3
v -0.3 1.4 -9.68575e-08
v -0.3 1.4 -0.1
v -0.3 1.4 -0.3
v -0.3 1.6 -9.68575e-08
v -0.3 1.6 -0.1
v -0.3 1.6 -0.3
v 1.49012e-07 0.7 -9.68575e-08
v 1.49012e-07 0.7 -0.1
v 1.49012e-07 0.7 -0.3
v 1.49012e-07 1.2 -9.68575e-08
v 1.49012e-07 1.2 -0.1
v 1.49012e-07 1.2 -0.3
v 1.49012e-07 1.4 -9.68575e-08
v 1.49012e-07 1.4 -0.1
v 1.49012e-07 1.4 -0.3
v 1.49012e-07 1.6 -9.68575e-08
v 1.49012e-07 1.6 -0.1
v 1.49012e-07 1.6 -0.3
v -0.3 0.7 -9.68575e-08
v -0.3 1.2 -9.68575e-08
v -0.3 1.4 -9.68575e-08
v -0.3 1.6 -9.68575e-08
v 1.49012e-07 0.7 -9.68575e-08
v 1.49012e-07 1.2 -9.68575e-08
v 1.49012e-07 1.4 -9.68575e-08
v 1.49012e-07 1.6 -9.68575e-08
v -0.3 0.7 -0.3
v -0.3 1.2 -0.3
v -0.3 1.4 -0.3
v -0.3 1.6 -0.3
v -0.2 0.7 -0.3
v -0.2 0.8 -0.3
v -0.0999998 0.7 -0.3
v -0.0999998 0.8 -0.3
v 1.49012e-07 0.7 -0.3
v 1.49012e-07 1.2 -0.3
v 1.49012e-07 1.4 -0.3
v 1.49012e-07 1.6 -0.3
v -0.3 0.7 -9.68575e-08
v 1.49012e-07 0.7 -9.68575e-08
v -0.3 0.7 -0.1
v -0.2 0.7 -0.1
v -0.0999998 0.7 -0.1
v 1.49012e-07 0.7 -0.1
v -0.3 0.7 -0.2
v -0.2 0.7 -0.2
v -0.0999998 0.7 -0.2
v -0.3 0.7 -0.3
v -0.2 0.7 -0.3
v -0.0999998 0.7 -0.3
v 1.49012e-07 0.7 -0.3
v -0.3 1.6 -9.68575e-08
v 1.49012e-07 1.6 -9.68575e-08
v -0.3 1.6 -0.1
v 1.49012e-07 1.6 -0.1
v -0.3 1.6 -0.3
v 1.49012e-07 1.6 -0.3

# faces
f 5/4/1 2/4/1 1/4/1
f 5/6/1 3/6/1 2/6/1
f 6/5/1 4/5/1 3/5/1
f 6/6/1 3/6/1 5/6/1
f 7/4/1 5/4/1 1/4/1
f 8/5/1 6/5/1 5/5/1
f 8/4/1 5/4/1 7/4/1
f 9/5/1 4/5/1 6/5/1
f 9/5/1 6/5/1 8/5/1
f 10/7/1 8/7/1 7/7/1
f 11/6/1 9/6/1 8/6/1
f 11/7/1 8/7/1 10/7/1
f 12/6/1 9/6/1 11/6/1
f 13/2/1 11/2/1 10/2/1
f 14/3/1 12/3/1 11/3/1
f 14/2/1 11/2/1 13/2/1
f 15/3/1 12/3/1 14/3/1
f 16/4/2 17/4/2 19/4/2
f 17/5/2 18/5/2 20/5/2
f 19/4/2 17/4/2 20/4/2
f 20/5/2 18/5/2 21/5/2
f 19/7/2 20/7/2 22/7/2
f 20/6/2 21/6/2 23/6/2
f 22/7/2 20/7/2 23/7/2
f 23/6/2 21/6/2 24/6/2
f 22/2/2 23/2/2 25/2/2
f 23/3/2 24/3/2 26/3/2
f 25/2/2 23/2/2 26/2/2
f 26/3/2 24/3/2 27/3/2
f 32/4/3 29/4/3 28/4/3
f 33/7/3 30/7/3 29/7/3
f 33/4/3 29/4/3 32/4/3
f 34/2/3 31/2/3 30/2/3
f 34/7/3 30/7/3 33/7/3
f 35/2/3 31/2/3 34/2/3
f 36/5/4 37/5/4 40/5/4
f 40/5/4 37/5/4 41/5/4
f 40/1/4 41/1/4 42/1/4
f 41/5/4 37/5/4 43/5/4
f 42/1/4 41/1/4 43/1/4
f 42/5/4 43/5/4 44/5/4
f 37/6/4 38/6/4 45/6/4
f 44/5/4 43/5/4 45/5/4
f 43/5/4 37/5/4 45/5/4
f 38/3/4 39/3/4 46/3/4
f 45/6/4 38/6/4 46/6/4
f 46/3/4 39/3/4 47/3/4
f 50/4/5 49/4/5 48/4/5
f 51/4/5 49/4/5 50/4/5
f 52/4/5 49/4/5 51/4/5
f 53/4/5 49/4/5 52/4/5
f 54/6/5 51/6/5 50/6/5
f 55/3/5 52/3/5 51/3/5
f 55/6/5 51/6/5 54/6/5
f 56/5/5 53/5/5 52/5/5
f 56/3/5 52/3/5 55/3/5
f 57/5/5 55/5/5 54/5/5
f 58/1/5 56/1/5 55/1/5
f 58/5/5 55/5/5 57/5/5
f 59/5/5 53/5/5 56/5/5
f 59/1/5 56/1/5 58/1/5
f 60/5/5 53/5/5 59/5/5
f 61/2/6 62/2/6 63/2/6
f 63/2/6 62/2/6 64/2/6
f 63/3/6 64/3/6 65/3/6
f 65/3/6 64/3/6 66/3/6
