# MagicaVoxel @ Ephtracy

# group
o Lleg2

# material
mtllib pracGenny-7-Lleg2.mtl
usemtl palette

# normals
vn -1 0 0
vn 1 0 0
vn 0 0 1
vn 0 0 -1
vn 0 -1 0
vn 0 1 0

# texcoords
vt 0.0175781 0.5
vt 0.0253906 0.5
vt 0.0292969 0.5
vt 0.392578 0.5
vt 0.396484 0.5
vt 0.958984 0.5
vt 0.970703 0.5

# verts
v -0.3 0.7 0.4
v -0.3 0.7 0.3
v -0.3 0.7 0.2
v -0.3 0.7 0.1
v -0.3 1.1 0.3
v -0.3 1.1 0.2
v -0.3 1.2 0.4
v -0.3 1.2 0.2
v -0.3 1.2 0.1
v -0.3 1.4 0.4
v -0.3 1.4 0.2
v -0.3 1.4 0.1
v -0.3 1.6 0.4
v -0.3 1.6 0.2
v -0.3 1.6 0.1
v 1.49012e-07 0.7 0.4
v 1.49012e-07 0.7 0.2
v 1.49012e-07 0.7 0.1
v 1.49012e-07 1.2 0.4
v 1.49012e-07 1.2 0.2
v 1.49012e-07 1.2 0.1
v 1.49012e-07 1.4 0.4
v 1.49012e-07 1.4 0.2
v 1.49012e-07 1.4 0.1
v 1.49012e-07 1.6 0.4
v 1.49012e-07 1.6 0.2
v 1.49012e-07 1.6 0.1
v -0.3 0.7 0.4
v -0.3 1.2 0.4
v -0.3 1.4 0.4
v -0.3 1.6 0.4
v -0.2 0.7 0.4
v -0.2 0.8 0.4
v -0.0999998 0.7 0.4
v -0.0999998 0.8 0.4
v 1.49012e-07 0.7 0.4
v 1.49012e-07 1.2 0.4
v 1.49012e-07 1.4 0.4
v 1.49012e-07 1.6 0.4
v -0.3 0.7 0.1
v -0.3 1.2 0.1
v -0.3 1.4 0.1
v -0.3 1.6 0.1
v 1.49012e-07 0.7 0.1
v 1.49012e-07 1.2 0.1
v 1.49012e-07 1.4 0.1
v 1.49012e-07 1.6 0.1
v -0.3 0.7 0.4
v -0.2 0.7 0.4
v -0.0999998 0.7 0.4
v 1.49012e-07 0.7 0.4
v -0.3 0.7 0.3
v -0.2 0.7 0.3
v -0.0999998 0.7 0.3
v -0.3 0.7 0.2
v -0.2 0.7 0.2
v -0.0999998 0.7 0.2
v 1.49012e-07 0.7 0.2
v -0.3 0.7 0.1
v 1.49012e-07 0.7 0.1
v -0.3 1.6 0.4
v 1.49012e-07 1.6 0.4
v -0.3 1.6 0.2
v 1.49012e-07 1.6 0.2
v -0.3 1.6 0.1
v 1.49012e-07 1.6 0.1

# faces
f 5/5/1 2/5/1 1/5/1
f 5/6/1 3/6/1 2/6/1
f 6/4/1 4/4/1 3/4/1
f 6/6/1 3/6/1 5/6/1
f 7/5/1 5/5/1 1/5/1
f 7/5/1 6/5/1 5/5/1
f 8/4/1 4/4/1 6/4/1
f 8/5/1 6/5/1 7/5/1
f 9/4/1 4/4/1 8/4/1
f 10/6/1 8/6/1 7/6/1
f 11/7/1 9/7/1 8/7/1
f 11/6/1 8/6/1 10/6/1
f 12/7/1 9/7/1 11/7/1
f 13/3/1 11/3/1 10/3/1
f 14/2/1 12/2/1 11/2/1
f 14/3/1 11/3/1 13/3/1
f 15/2/1 12/2/1 14/2/1
f 16/5/2 17/5/2 19/5/2
f 17/4/2 18/4/2 20/4/2
f 19/5/2 17/5/2 20/5/2
f 20/4/2 18/4/2 21/4/2
f 19/6/2 20/6/2 22/6/2
f 20/7/2 21/7/2 23/7/2
f 22/6/2 20/6/2 23/6/2
f 23/7/2 21/7/2 24/7/2
f 22/3/2 23/3/2 25/3/2
f 23/2/2 24/2/2 26/2/2
f 25/3/2 23/3/2 26/3/2
f 26/2/2 24/2/2 27/2/2
f 32/5/3 29/5/3 28/5/3
f 33/5/3 29/5/3 32/5/3
f 34/1/3 33/1/3 32/1/3
f 35/5/3 29/5/3 33/5/3
f 35/1/3 33/1/3 34/1/3
f 36/5/3 35/5/3 34/5/3
f 37/6/3 30/6/3 29/6/3
f 37/5/3 35/5/3 36/5/3
f 37/5/3 29/5/3 35/5/3
f 38/3/3 31/3/3 30/3/3
f 38/6/3 30/6/3 37/6/3
f 39/3/3 31/3/3 38/3/3
f 40/4/4 41/4/4 44/4/4
f 41/7/4 42/7/4 45/7/4
f 44/4/4 41/4/4 45/4/4
f 42/2/4 43/2/4 46/2/4
f 45/7/4 42/7/4 46/7/4
f 46/2/4 43/2/4 47/2/4
f 52/5/5 49/5/5 48/5/5
f 53/1/5 50/1/5 49/1/5
f 53/5/5 49/5/5 52/5/5
f 54/5/5 51/5/5 50/5/5
f 54/1/5 50/1/5 53/1/5
f 55/6/5 53/6/5 52/6/5
f 56/3/5 54/3/5 53/3/5
f 56/6/5 53/6/5 55/6/5
f 57/5/5 51/5/5 54/5/5
f 57/3/5 54/3/5 56/3/5
f 58/5/5 51/5/5 57/5/5
f 59/4/5 56/4/5 55/4/5
f 59/4/5 57/4/5 56/4/5
f 59/4/5 58/4/5 57/4/5
f 60/4/5 58/4/5 59/4/5
f 61/3/6 62/3/6 63/3/6
f 63/3/6 62/3/6 64/3/6
f 63/2/6 64/2/6 65/2/6
f 65/2/6 64/2/6 66/2/6
