# MagicaVoxel @ Ephtracy

# group
o hair

# material
mtllib pracGenny-0-hair.mtl
usemtl palette

# normals
vn -1 0 0
vn 1 0 0
vn 0 0 1
vn 0 0 -1
vn 0 -1 0
vn 0 1 0

# texcoords
vt 0.716797 0.5
vt 0.744141 0.5
vt 0.958984 0.5

# verts
v -0.8 4.4 0.3
v -0.8 4.4 0.2
v -0.8 4.5 0.2
v -0.8 4.5 -0.5
v -0.8 4.6 0.3
v -0.8 4.6 -0.5
v -0.7 4.3 0.3
v -0.7 4.3 0.1
v -0.7 4.3 -1
v -0.7 4.4 0.3
v -0.7 4.4 0.2
v -0.7 4.4 0.1
v -0.7 4.4 -0.4
v -0.7 4.4 -0.5
v -0.7 4.4 -0.6
v -0.7 4.4 -1
v -0.7 4.4 -1.1
v -0.7 4.5 0.2
v -0.7 4.5 -0.4
v -0.7 4.5 -0.5
v -0.7 4.5 -0.6
v -0.7 4.5 -1
v -0.7 4.5 -1.1
v -0.7 4.6 -0.2
v -0.7 4.6 -0.3
v -0.7 4.7 -0.2
v -0.7 4.7 -0.3
v -0.6 3.8 -0.6
v -0.6 3.8 -0.7
v -0.6 3.9 -0.7
v -0.6 3.9 -0.8
v -0.6 4 -0.7
v -0.6 4 -0.8
v -0.6 4.1 -0.8
v -0.6 4.1 -1
v -0.6 4.2 -0.7
v -0.6 4.2 -0.8
v -0.6 4.2 -0.9
v -0.6 4.2 -1
v -0.6 4.3 -0.6
v -0.6 4.3 -0.7
v -0.6 4.3 -0.9
v -0.5 3.5 -0.6
v -0.5 3.5 -0.7
v -0.5 3.6 -0.7
v -0.5 3.6 -0.8
v -0.5 3.8 -0.6
v -0.5 3.8 -0.7
v -0.5 3.8 -0.8
v -0.5 3.8 -0.9
v -0.5 3.9 -0.7
v -0.5 3.9 -0.8
v -0.5 4 -0.8
v -0.5 4.1 -0.8
v -0.5 4.1 -0.9
v -0.2 4.1 -0.5
v -0.2 4.1 -0.6
v -0.2 4.2 -0.5
v -0.2 4.2 -0.6
v -0.6 4.3 0.2
v -0.6 4.3 0.1
v -0.6 4.3 -0.2
v -0.6 4.3 -0.8
v -0.6 4.3 -0.9
v -0.6 4.3 -1
v -0.6 4.4 0.3
v -0.6 4.4 0.2
v -0.6 4.4 0.1
v -0.6 4.4 -0.2
v -0.6 4.4 -0.8
v -0.6 4.4 -1
v -0.6 4.4 -1.1
v -0.6 4.5 0.2
v -0.6 4.5 -0.2
v -0.6 4.5 -0.3
v -0.6 4.5 -0.5
v -0.6 4.5 -1
v -0.6 4.5 -1.1
v -0.6 4.6 0.3
v -0.6 4.6 -0.2
v -0.6 4.6 -0.3
v -0.6 4.6 -0.5
v -0.6 4.7 -0.2
v -0.6 4.7 -0.3
v -0.5 4.3 0.3
v -0.5 4.3 0.2
v -0.5 4.3 -0.2
v -0.5 4.3 -0.6
v -0.5 4.4 0.3
v -0.5 4.4 0.2
v -0.5 4.4 -0.6
v -0.5 4.5 -0.3
v -0.5 4.5 -0.6
v -0.5 4.6 -0.2
v -0.5 4.6 -0.3
v -0.4 3.5 -0.6
v -0.4 3.5 -0.7
v -0.4 3.6 -0.7
v -0.4 3.6 -0.8
v -0.4 3.8 -0.6
v -0.4 3.8 -0.7
v -0.4 3.8 -0.8
v -0.4 3.8 -0.9
v -0.4 3.9 -0.7
v -0.4 3.9 -0.8
v -0.4 4.1 -0.8
v -0.4 4.1 -0.9
v -0.4 4.3 -0.7
v -0.4 4.3 -0.8
v -0.4 4.4 -0.7
v -0.4 4.4 -0.8
v -0.3 3.8 -0.6
v -0.3 3.8 -0.7
v -0.3 3.9 -0.6
v -0.3 3.9 -0.7
v -0.3 3.9 -0.8
v -0.3 4.1 -0.7
v -0.3 4.1 -0.8
v -0.3 4.1 -1
v -0.3 4.2 -0.7
v -0.3 4.2 -0.8
v -0.3 4.2 -0.9
v -0.3 4.2 -1
v -0.3 4.3 -0.7
v -0.3 4.3 -0.9
v -0.2 3.9 -0.6
v -0.2 3.9 -0.7
v -0.2 4.1 -0.6
v -0.2 4.1 -0.7
v -0.2 4.1 -0.8
v -0.2 4.2 -0.7
v -0.2 4.2 -0.8
v -0.2 4.3 -0.6
v -0.2 4.3 -0.7
v -0.2 4.4 -0.6
v -0.2 4.4 -0.7
v -0.1 4.2 -0.6
v -0.1 4.2 -0.7
v -0.1 4.3 -0.6
v -0.1 4.3 -0.7
v 5.96046e-08 4.1 -0.6
v 5.96046e-08 4.1 -0.7
v 5.96046e-08 4.2 -0.6
v 5.96046e-08 4.2 -0.7
v 0.1 4.1 -0.5
v 0.1 4.1 -0.6
v 0.1 4.2 -0.5
v 0.1 4.2 -0.6
v -0.8 4.4 0.3
v -0.8 4.6 0.3
v -0.7 4.3 0.3
v -0.7 4.4 0.3
v -0.6 4.4 0.3
v -0.6 4.6 0.3
v -0.5 4.3 0.3
v -0.5 4.4 0.3
v -0.7 4.6 -0.2
v -0.7 4.7 -0.2
v -0.6 4.3 -0.2
v -0.6 4.4 -0.2
v -0.6 4.5 -0.2
v -0.6 4.6 -0.2
v -0.6 4.7 -0.2
v -0.5 4.3 -0.2
v -0.5 4.6 -0.2
v -0.2 4.1 -0.5
v -0.2 4.2 -0.5
v 0.1 4.1 -0.5
v 0.1 4.2 -0.5
v -0.6 3.8 -0.6
v -0.6 4.3 -0.6
v -0.5 3.5 -0.6
v -0.5 3.8 -0.6
v -0.5 4.3 -0.6
v -0.5 4.4 -0.6
v -0.4 3.5 -0.6
v -0.4 3.8 -0.6
v -0.3 3.8 -0.6
v -0.3 3.9 -0.6
v -0.2 3.9 -0.6
v -0.2 4.1 -0.6
v -0.2 4.2 -0.6
v -0.2 4.3 -0.6
v -0.2 4.4 -0.6
v -0.1 4.2 -0.6
v -0.1 4.3 -0.6
v -0.7 4.4 -1
v -0.7 4.5 -1
v -0.6 4.4 -1
v -0.6 4.5 -1
v -0.8 4.4 0.2
v -0.8 4.5 0.2
v -0.7 4.4 0.2
v -0.7 4.5 0.2
v -0.6 4.3 0.2
v -0.6 4.4 0.2
v -0.5 4.3 0.2
v -0.5 4.4 0.2
v -0.7 4.6 -0.3
v -0.7 4.7 -0.3
v -0.6 4.5 -0.3
v -0.6 4.6 -0.3
v -0.6 4.7 -0.3
v -0.5 4.5 -0.3
v -0.5 4.6 -0.3
v -0.8 4.5 -0.5
v -0.8 4.6 -0.5
v -0.7 4.5 -0.5
v -0.6 4.5 -0.5
v -0.6 4.6 -0.5
v -0.7 4.4 -0.6
v -0.7 4.5 -0.6
v -0.6 4.4 -0.6
v -0.6 4.5 -0.6
v -0.5 4.4 -0.6
v -0.5 4.5 -0.6
v 5.96046e-08 4.1 -0.6
v 5.96046e-08 4.2 -0.6
v 0.1 4.1 -0.6
v 0.1 4.2 -0.6
v -0.6 3.8 -0.7
v -0.6 3.9 -0.7
v -0.5 3.5 -0.7
v -0.5 3.6 -0.7
v -0.5 3.8 -0.7
v -0.5 3.9 -0.7
v -0.4 3.5 -0.7
v -0.4 3.6 -0.7
v -0.4 3.8 -0.7
v -0.4 3.9 -0.7
v -0.4 4.3 -0.7
v -0.4 4.4 -0.7
v -0.3 3.8 -0.7
v -0.3 3.9 -0.7
v -0.3 4.1 -0.7
v -0.3 4.2 -0.7
v -0.3 4.3 -0.7
v -0.2 3.9 -0.7
v -0.2 4.1 -0.7
v -0.2 4.2 -0.7
v -0.2 4.3 -0.7
v -0.2 4.4 -0.7
v -0.1 4.2 -0.7
v -0.1 4.3 -0.7
v 5.96046e-08 4.1 -0.7
v 5.96046e-08 4.2 -0.7
v -0.6 3.9 -0.8
v -0.6 4 -0.8
v -0.6 4.1 -0.8
v -0.6 4.3 -0.8
v -0.6 4.4 -0.8
v -0.5 3.6 -0.8
v -0.5 3.8 -0.8
v -0.5 3.9 -0.8
v -0.5 4 -0.8
v -0.5 4.1 -0.8
v -0.4 3.6 -0.8
v -0.4 3.8 -0.8
v -0.4 3.9 -0.8
v -0.4 4.1 -0.8
v -0.4 4.3 -0.8
v -0.4 4.4 -0.8
v -0.3 3.9 -0.8
v -0.3 4.1 -0.8
v -0.3 4.2 -0.8
v -0.2 4.1 -0.8
v -0.2 4.2 -0.8
v -0.6 4.2 -0.9
v -0.6 4.3 -0.9
v -0.5 3.8 -0.9
v -0.5 4.1 -0.9
v -0.4 3.8 -0.9
v -0.4 4.1 -0.9
v -0.3 4.2 -0.9
v -0.3 4.3 -0.9
v -0.7 4.3 -1
v -0.7 4.4 -1
v -0.6 4.1 -1
v -0.6 4.2 -1
v -0.6 4.3 -1
v -0.6 4.4 -1
v -0.3 4.1 -1
v -0.3 4.2 -1
v -0.7 4.4 -1.1
v -0.7 4.5 -1.1
v -0.6 4.4 -1.1
v -0.6 4.5 -1.1
v -0.5 3.5 -0.6
v -0.4 3.5 -0.6
v -0.5 3.5 -0.7
v -0.4 3.5 -0.7
v -0.5 3.6 -0.7
v -0.4 3.6 -0.7
v -0.5 3.6 -0.8
v -0.4 3.6 -0.8
v -0.6 3.8 -0.6
v -0.5 3.8 -0.6
v -0.4 3.8 -0.6
v -0.3 3.8 -0.6
v -0.6 3.8 -0.7
v -0.5 3.8 -0.7
v -0.4 3.8 -0.7
v -0.3 3.8 -0.7
v -0.5 3.8 -0.8
v -0.4 3.8 -0.8
v -0.5 3.8 -0.9
v -0.4 3.8 -0.9
v -0.3 3.9 -0.6
v -0.2 3.9 -0.6
v -0.6 3.9 -0.7
v -0.5 3.9 -0.7
v -0.4 3.9 -0.7
v -0.3 3.9 -0.7
v -0.2 3.9 -0.7
v -0.6 3.9 -0.8
v -0.5 3.9 -0.8
v -0.4 3.9 -0.8
v -0.3 3.9 -0.8
v -0.2 4.1 -0.5
v 0.1 4.1 -0.5
v -0.2 4.1 -0.6
v 5.96046e-08 4.1 -0.6
v 0.1 4.1 -0.6
v -0.3 4.1 -0.7
v -0.2 4.1 -0.7
v 5.96046e-08 4.1 -0.7
v -0.6 4.1 -0.8
v -0.5 4.1 -0.8
v -0.4 4.1 -0.8
v -0.3 4.1 -0.8
v -0.2 4.1 -0.8
v -0.5 4.1 -0.9
v -0.4 4.1 -0.9
v -0.6 4.1 -1
v -0.3 4.1 -1
v -0.7 4.3 0.3
v -0.5 4.3 0.3
v -0.6 4.3 0.2
v -0.5 4.3 0.2
v -0.7 4.3 0.1
v -0.6 4.3 0.1
v -0.6 4.3 -0.2
v -0.5 4.3 -0.2
v -0.6 4.3 -0.6
v -0.5 4.3 -0.6
v -0.6 4.3 -0.7
v -0.6 4.3 -0.9
v -0.7 4.3 -1
v -0.6 4.3 -1
v -0.8 4.4 0.3
v -0.7 4.4 0.3
v -0.8 4.4 0.2
v -0.7 4.4 0.2
v -0.7 4.4 -1
v -0.6 4.4 -1
v -0.7 4.4 -1.1
v -0.6 4.4 -1.1
v -0.8 4.5 0.2
v -0.7 4.5 0.2
v -0.7 4.5 -0.4
v -0.8 4.5 -0.5
v -0.7 4.5 -0.5
v -0.2 4.2 -0.5
v 0.1 4.2 -0.5
v -0.2 4.2 -0.6
v -0.1 4.2 -0.6
v 5.96046e-08 4.2 -0.6
v 0.1 4.2 -0.6
v -0.3 4.2 -0.7
v -0.2 4.2 -0.7
v -0.1 4.2 -0.7
v 5.96046e-08 4.2 -0.7
v -0.3 4.2 -0.8
v -0.2 4.2 -0.8
v -0.6 4.2 -0.9
v -0.3 4.2 -0.9
v -0.6 4.2 -1
v -0.3 4.2 -1
v -0.2 4.3 -0.6
v -0.1 4.3 -0.6
v -0.4 4.3 -0.7
v -0.3 4.3 -0.7
v -0.2 4.3 -0.7
v -0.1 4.3 -0.7
v -0.6 4.3 -0.8
v -0.4 4.3 -0.8
v -0.6 4.3 -0.9
v -0.3 4.3 -0.9
v -0.6 4.4 0.3
v -0.5 4.4 0.3
v -0.6 4.4 0.2
v -0.5 4.4 0.2
v -0.7 4.4 -0.6
v -0.6 4.4 -0.6
v -0.5 4.4 -0.6
v -0.2 4.4 -0.6
v -0.4 4.4 -0.7
v -0.2 4.4 -0.7
v -0.6 4.4 -0.8
v -0.4 4.4 -0.8
v -0.7 4.4 -1
v -0.6 4.4 -1
v -0.6 4.5 -0.3
v -0.5 4.5 -0.3
v -0.7 4.5 -0.5
v -0.6 4.5 -0.5
v -0.7 4.5 -0.6
v -0.6 4.5 -0.6
v -0.5 4.5 -0.6
v -0.7 4.5 -1
v -0.6 4.5 -1
v -0.7 4.5 -1.1
v -0.6 4.5 -1.1
v -0.8 4.6 0.3
v -0.6 4.6 0.3
v -0.7 4.6 -0.2
v -0.6 4.6 -0.2
v -0.5 4.6 -0.2
v -0.7 4.6 -0.3
v -0.6 4.6 -0.3
v -0.5 4.6 -0.3
v -0.8 4.6 -0.5
v -0.6 4.6 -0.5
v -0.7 4.7 -0.2
v -0.6 4.7 -0.2
v -0.7 4.7 -0.3
v -0.6 4.7 -0.3

# faces
f 3/1/1 2/1/1 1/1/1
f 5/1/1 3/1/1 1/1/1
f 5/1/1 4/1/1 3/1/1
f 6/1/1 4/1/1 5/1/1
f 10/1/1 8/1/1 7/1/1
f 11/1/1 8/1/1 10/1/1
f 12/2/1 9/2/1 8/2/1
f 12/1/1 8/1/1 11/1/1
f 13/2/1 9/2/1 12/2/1
f 14/2/1 9/2/1 13/2/1
f 15/2/1 9/2/1 14/2/1
f 16/2/1 9/2/1 15/2/1
f 18/3/1 12/3/1 11/3/1
f 18/3/1 13/3/1 12/3/1
f 19/1/1 14/1/1 13/1/1
f 19/3/1 13/3/1 18/3/1
f 20/3/1 15/3/1 14/3/1
f 20/1/1 14/1/1 19/1/1
f 21/3/1 15/3/1 20/3/1
f 22/2/1 17/2/1 16/2/1
f 23/2/1 17/2/1 22/2/1
f 26/1/1 25/1/1 24/1/1
f 27/1/1 25/1/1 26/1/1
f 30/2/1 29/2/1 28/2/1
f 32/2/1 30/2/1 28/2/1
f 32/1/1 31/1/1 30/1/1
f 33/1/1 31/1/1 32/1/1
f 34/3/1 33/3/1 32/3/1
f 36/2/1 32/2/1 28/2/1
f 36/3/1 34/3/1 32/3/1
f 37/1/1 35/1/1 34/1/1
f 37/3/1 34/3/1 36/3/1
f 38/1/1 35/1/1 37/1/1
f 39/1/1 35/1/1 38/1/1
f 40/2/1 36/2/1 28/2/1
f 41/1/1 37/1/1 36/1/1
f 41/2/1 36/2/1 40/2/1
f 41/1/1 38/1/1 37/1/1
f 42/1/1 38/1/1 41/1/1
f 45/2/1 44/2/1 43/2/1
f 47/2/1 45/2/1 43/2/1
f 47/2/1 46/2/1 45/2/1
f 48/2/1 46/2/1 47/2/1
f 49/2/1 46/2/1 48/2/1
f 51/2/1 50/2/1 49/2/1
f 51/2/1 49/2/1 48/2/1
f 52/2/1 50/2/1 51/2/1
f 53/2/1 50/2/1 52/2/1
f 54/2/1 50/2/1 53/2/1
f 55/2/1 50/2/1 54/2/1
f 58/1/1 57/1/1 56/1/1
f 59/1/1 57/1/1 58/1/1
f 60/1/2 61/1/2 67/1/2
f 61/2/2 62/2/2 68/2/2
f 67/1/2 61/1/2 68/1/2
f 68/2/2 62/2/2 69/2/2
f 64/2/2 65/2/2 70/2/2
f 63/2/2 64/2/2 70/2/2
f 70/2/2 65/2/2 71/2/2
f 68/3/2 69/3/2 73/3/2
f 66/1/2 67/1/2 73/1/2
f 67/3/2 68/3/2 73/3/2
f 73/3/2 69/3/2 74/3/2
f 71/2/2 72/2/2 77/2/2
f 77/2/2 72/2/2 78/2/2
f 66/1/2 73/1/2 79/1/2
f 73/1/2 74/1/2 79/1/2
f 79/1/2 74/1/2 80/1/2
f 75/1/2 76/1/2 81/1/2
f 81/1/2 76/1/2 82/1/2
f 80/1/2 81/1/2 83/1/2
f 83/1/2 81/1/2 84/1/2
f 85/1/2 86/1/2 89/1/2
f 89/1/2 86/1/2 90/1/2
f 87/1/2 88/1/2 91/1/2
f 87/1/2 91/1/2 92/1/2
f 92/1/2 91/1/2 93/1/2
f 87/1/2 92/1/2 94/1/2
f 94/1/2 92/1/2 95/1/2
f 96/2/2 97/2/2 98/2/2
f 96/2/2 98/2/2 100/2/2
f 98/2/2 99/2/2 100/2/2
f 100/2/2 99/2/2 101/2/2
f 101/2/2 99/2/2 102/2/2
f 102/2/2 103/2/2 104/2/2
f 101/2/2 102/2/2 104/2/2
f 104/2/2 103/2/2 105/2/2
f 105/2/2 103/2/2 106/2/2
f 106/2/2 103/2/2 107/2/2
f 108/1/2 109/1/2 110/1/2
f 110/1/2 109/1/2 111/1/2
f 112/1/2 113/1/2 114/1/2
f 114/1/2 113/1/2 115/1/2
f 115/1/2 116/1/2 117/1/2
f 117/1/2 116/1/2 118/1/2
f 118/1/2 119/1/2 121/1/2
f 121/1/2 119/1/2 122/1/2
f 122/1/2 119/1/2 123/1/2
f 120/1/2 121/1/2 124/1/2
f 121/1/2 122/1/2 124/1/2
f 124/1/2 122/1/2 125/1/2
f 126/1/2 127/1/2 128/1/2
f 128/1/2 127/1/2 129/1/2
f 129/1/2 130/1/2 131/1/2
f 131/1/2 130/1/2 132/1/2
f 133/1/2 134/1/2 135/1/2
f 135/1/2 134/1/2 136/1/2
f 137/1/2 138/1/2 139/1/2
f 139/1/2 138/1/2 140/1/2
f 141/1/2 142/1/2 143/1/2
f 143/1/2 142/1/2 144/1/2
f 145/1/2 146/1/2 147/1/2
f 147/1/2 146/1/2 148/1/2
f 152/1/3 150/1/3 149/1/3
f 153/1/3 150/1/3 152/1/3
f 153/1/3 152/1/3 151/1/3
f 154/1/3 150/1/3 153/1/3
f 155/1/3 153/1/3 151/1/3
f 156/1/3 153/1/3 155/1/3
f 162/1/3 158/1/3 157/1/3
f 163/1/3 158/1/3 162/1/3
f 164/1/3 161/1/3 160/1/3
f 164/1/3 160/1/3 159/1/3
f 164/1/3 162/1/3 161/1/3
f 165/1/3 162/1/3 164/1/3
f 168/1/3 167/1/3 166/1/3
f 169/1/3 167/1/3 168/1/3
f 173/2/3 171/2/3 170/2/3
f 174/2/3 171/2/3 173/2/3
f 176/2/3 173/2/3 172/2/3
f 177/1/3 175/1/3 174/1/3
f 177/2/3 173/2/3 176/2/3
f 177/1/3 174/1/3 173/1/3
f 178/1/3 175/1/3 177/1/3
f 179/1/3 175/1/3 178/1/3
f 180/1/3 175/1/3 179/1/3
f 181/1/3 175/1/3 180/1/3
f 182/1/3 175/1/3 181/1/3
f 183/1/3 175/1/3 182/1/3
f 184/1/3 175/1/3 183/1/3
f 185/1/3 183/1/3 182/1/3
f 186/1/3 183/1/3 185/1/3
f 189/2/3 188/2/3 187/2/3
f 190/2/3 188/2/3 189/2/3
f 191/1/4 192/1/4 193/1/4
f 193/1/4 192/1/4 194/1/4
f 195/1/4 196/1/4 197/1/4
f 197/1/4 196/1/4 198/1/4
f 199/1/4 200/1/4 202/1/4
f 202/1/4 200/1/4 203/1/4
f 201/1/4 202/1/4 204/1/4
f 204/1/4 202/1/4 205/1/4
f 206/1/4 207/1/4 208/1/4
f 208/1/4 207/1/4 209/1/4
f 209/1/4 207/1/4 210/1/4
f 211/3/4 212/3/4 213/3/4
f 213/3/4 212/3/4 214/3/4
f 213/1/4 214/1/4 215/1/4
f 215/1/4 214/1/4 216/1/4
f 217/1/4 218/1/4 219/1/4
f 219/1/4 218/1/4 220/1/4
f 221/2/4 222/2/4 225/2/4
f 225/2/4 222/2/4 226/2/4
f 223/2/4 224/2/4 227/2/4
f 227/2/4 224/2/4 228/2/4
f 229/1/4 230/1/4 233/1/4
f 233/1/4 230/1/4 234/1/4
f 231/1/4 232/1/4 237/1/4
f 234/1/4 235/1/4 238/1/4
f 238/1/4 235/1/4 239/1/4
f 236/1/4 237/1/4 240/1/4
f 237/1/4 232/1/4 241/1/4
f 240/1/4 237/1/4 241/1/4
f 241/1/4 232/1/4 242/1/4
f 239/1/4 240/1/4 243/1/4
f 240/1/4 241/1/4 243/1/4
f 243/1/4 241/1/4 244/1/4
f 239/1/4 243/1/4 245/1/4
f 245/1/4 243/1/4 246/1/4
f 247/1/4 248/1/4 254/1/4
f 248/3/4 249/3/4 255/3/4
f 254/1/4 248/1/4 255/1/4
f 255/3/4 249/3/4 256/3/4
f 252/2/4 253/2/4 257/2/4
f 257/2/4 253/2/4 258/2/4
f 250/1/4 251/1/4 261/1/4
f 261/1/4 251/1/4 262/1/4
f 259/1/4 260/1/4 263/1/4
f 263/1/4 260/1/4 264/1/4
f 264/1/4 265/1/4 266/1/4
f 266/1/4 265/1/4 267/1/4
f 270/2/4 271/2/4 272/2/4
f 272/2/4 271/2/4 273/2/4
f 268/1/4 269/1/4 274/1/4
f 274/1/4 269/1/4 275/1/4
f 276/2/4 277/2/4 280/2/4
f 280/2/4 277/2/4 281/2/4
f 278/1/4 279/1/4 282/1/4
f 282/1/4 279/1/4 283/1/4
f 284/2/4 285/2/4 286/2/4
f 286/2/4 285/2/4 287/2/4
f 290/2/5 289/2/5 288/2/5
f 291/2/5 289/2/5 290/2/5
f 294/2/5 293/2/5 292/2/5
f 295/2/5 293/2/5 294/2/5
f 300/2/5 297/2/5 296/2/5
f 301/2/5 297/2/5 300/2/5
f 302/1/5 299/1/5 298/1/5
f 303/1/5 299/1/5 302/1/5
f 306/2/5 305/2/5 304/2/5
f 307/2/5 305/2/5 306/2/5
f 313/1/5 309/1/5 308/1/5
f 314/1/5 309/1/5 313/1/5
f 315/1/5 311/1/5 310/1/5
f 316/1/5 311/1/5 315/1/5
f 317/1/5 313/1/5 312/1/5
f 318/1/5 313/1/5 317/1/5
f 321/1/5 320/1/5 319/1/5
f 322/1/5 320/1/5 321/1/5
f 323/1/5 320/1/5 322/1/5
f 325/1/5 322/1/5 321/1/5
f 326/1/5 322/1/5 325/1/5
f 330/1/5 325/1/5 324/1/5
f 331/1/5 325/1/5 330/1/5
f 332/1/5 328/1/5 327/1/5
f 333/1/5 330/1/5 329/1/5
f 334/1/5 332/1/5 327/1/5
f 334/1/5 333/1/5 332/1/5
f 335/1/5 330/1/5 333/1/5
f 335/1/5 333/1/5 334/1/5
f 338/1/5 337/1/5 336/1/5
f 339/1/5 337/1/5 338/1/5
f 340/1/5 338/1/5 336/1/5
f 341/1/5 338/1/5 340/1/5
f 342/2/5 341/2/5 340/2/5
f 344/2/5 342/2/5 340/2/5
f 344/1/5 343/1/5 342/1/5
f 345/1/5 343/1/5 344/1/5
f 346/2/5 344/2/5 340/2/5
f 347/2/5 346/2/5 340/2/5
f 348/2/5 347/2/5 340/2/5
f 349/2/5 347/2/5 348/2/5
f 352/1/5 351/1/5 350/1/5
f 353/1/5 351/1/5 352/1/5
f 356/2/5 355/2/5 354/2/5
f 357/2/5 355/2/5 356/2/5
f 360/1/5 359/1/5 358/1/5
f 361/1/5 360/1/5 358/1/5
f 362/1/5 360/1/5 361/1/5
f 363/1/6 364/1/6 365/1/6
f 365/1/6 364/1/6 366/1/6
f 366/1/6 364/1/6 367/1/6
f 367/1/6 364/1/6 368/1/6
f 366/1/6 367/1/6 371/1/6
f 371/1/6 367/1/6 372/1/6
f 369/1/6 370/1/6 373/1/6
f 373/1/6 370/1/6 374/1/6
f 375/1/6 376/1/6 377/1/6
f 377/1/6 376/1/6 378/1/6
f 379/1/6 380/1/6 383/1/6
f 383/1/6 380/1/6 384/1/6
f 381/1/6 382/1/6 386/1/6
f 385/1/6 386/1/6 387/1/6
f 386/1/6 382/1/6 388/1/6
f 387/1/6 386/1/6 388/1/6
f 389/1/6 390/1/6 391/1/6
f 391/1/6 390/1/6 392/1/6
f 394/1/6 395/1/6 397/1/6
f 395/1/6 396/1/6 397/1/6
f 397/1/6 396/1/6 398/1/6
f 393/2/6 394/2/6 399/2/6
f 394/1/6 397/1/6 399/1/6
f 399/1/6 397/1/6 400/1/6
f 393/2/6 399/2/6 401/2/6
f 401/2/6 399/2/6 402/2/6
f 403/1/6 404/1/6 406/1/6
f 405/3/6 406/3/6 407/3/6
f 406/1/6 404/1/6 408/1/6
f 407/3/6 406/3/6 408/3/6
f 408/1/6 404/1/6 409/1/6
f 410/2/6 411/2/6 412/2/6
f 412/2/6 411/2/6 413/2/6
f 414/1/6 415/1/6 416/1/6
f 416/1/6 415/1/6 417/1/6
f 414/1/6 416/1/6 419/1/6
f 417/1/6 418/1/6 420/1/6
f 420/1/6 418/1/6 421/1/6
f 414/1/6 419/1/6 422/1/6
f 419/1/6 420/1/6 422/1/6
f 422/1/6 420/1/6 423/1/6
f 424/1/6 425/1/6 426/1/6
f 426/1/6 425/1/6 427/1/6
