# MagicaVoxel @ Ephtracy

# group
o RShoulder

# material
mtllib pracGenny-12-RShoulder.mtl
usemtl palette

# normals
vn -1 0 0
vn 1 0 0
vn 0 0 -1
vn 0 0 1
vn 0 -1 0
vn 0 1 0

# texcoords
vt 0.0644531 0.5
vt 0.958984 0.5

# verts
v -0.3 3.3 0.5
v -0.3 3.3 0.6
v -0.3 3.7 0.5
v -0.3 3.7 0.6
v -0.2 3.4 0.4
v -0.2 3.4 0.5
v -0.2 3.6 0.4
v -0.2 3.6 0.5
v 1.49012e-07 3.4 0.4
v 1.49012e-07 3.4 0.5
v 1.49012e-07 3.6 0.4
v 1.49012e-07 3.6 0.5
v 0.1 3.3 0.5
v 0.1 3.3 0.6
v 0.1 3.7 0.5
v 0.1 3.7 0.6
v -0.2 3.4 0.4
v -0.2 3.6 0.4
v 1.49012e-07 3.4 0.4
v 1.49012e-07 3.6 0.4
v -0.3 3.3 0.5
v -0.3 3.7 0.5
v -0.2 3.4 0.5
v -0.2 3.6 0.5
v 1.49012e-07 3.4 0.5
v 1.49012e-07 3.6 0.5
v 0.1 3.3 0.5
v 0.1 3.7 0.5
v -0.3 3.3 0.6
v -0.3 3.7 0.6
v -0.2 3.4 0.6
v -0.2 3.6 0.6
v 1.49012e-07 3.4 0.6
v 1.49012e-07 3.6 0.6
v 0.1 3.3 0.6
v 0.1 3.7 0.6
v -0.3 3.3 0.5
v 0.1 3.3 0.5
v -0.3 3.3 0.6
v 0.1 3.3 0.6
v -0.2 3.4 0.4
v 1.49012e-07 3.4 0.4
v -0.2 3.4 0.5
v 1.49012e-07 3.4 0.5
v -0.2 3.6 0.4
v 1.49012e-07 3.6 0.4
v -0.2 3.6 0.5
v 1.49012e-07 3.6 0.5
v -0.3 3.7 0.5
v 0.1 3.7 0.5
v -0.3 3.7 0.6
v 0.1 3.7 0.6

# faces
f 1/1/1 2/1/1 3/1/1
f 3/1/1 2/1/1 4/1/1
f 5/2/1 6/2/1 7/2/1
f 7/2/1 6/2/1 8/2/1
f 11/2/2 10/2/2 9/2/2
f 12/2/2 10/2/2 11/2/2
f 15/1/2 14/1/2 13/1/2
f 16/1/2 14/1/2 15/1/2
f 17/2/3 18/2/3 19/2/3
f 19/2/3 18/2/3 20/2/3
f 21/1/3 22/1/3 23/1/3
f 23/1/3 22/1/3 24/1/3
f 21/1/3 23/1/3 25/1/3
f 24/1/3 22/1/3 26/1/3
f 21/1/3 25/1/3 27/1/3
f 25/1/3 26/1/3 27/1/3
f 26/1/3 22/1/3 28/1/3
f 27/1/3 26/1/3 28/1/3
f 31/1/4 30/1/4 29/1/4
f 32/1/4 30/1/4 31/1/4
f 33/1/4 31/1/4 29/1/4
f 33/2/4 32/2/4 31/2/4
f 34/1/4 30/1/4 32/1/4
f 34/2/4 32/2/4 33/2/4
f 35/1/4 33/1/4 29/1/4
f 35/1/4 34/1/4 33/1/4
f 36/1/4 30/1/4 34/1/4
f 36/1/4 34/1/4 35/1/4
f 37/1/5 38/1/5 39/1/5
f 39/1/5 38/1/5 40/1/5
f 41/2/5 42/2/5 43/2/5
f 43/2/5 42/2/5 44/2/5
f 47/2/6 46/2/6 45/2/6
f 48/2/6 46/2/6 47/2/6
f 51/1/6 50/1/6 49/1/6
f 52/1/6 50/1/6 51/1/6
