# MagicaVoxel @ Ephtracy

# group
o head

# material
mtllib pracGenny-2-head.mtl
usemtl palette

# normals
vn -1 0 0
vn 1 0 0
vn 0 0 1
vn 0 0 -1
vn 0 -1 0
vn 0 1 0

# texcoords
vt 0.0292969 0.5
vt 0.615234 0.5
vt 0.630859 0.5
vt 0.638672 0.5
vt 0.716797 0.5
vt 0.744141 0.5
vt 0.955078 0.5
vt 0.958984 0.5

# verts
v -0.6 3.6 0.6
v -0.6 3.6 -0.5
v -0.6 3.9 0.5
v -0.6 3.9 0.3
v -0.6 3.9 0.2
v -0.6 3.9 -0.1
v -0.6 3.9 -0.2
v -0.6 3.9 -0.4
v -0.6 4 0.6
v -0.6 4 0.5
v -0.6 4 0.4
v -0.6 4 0.3
v -0.6 4 0.2
v -0.6 4 0.0999998
v -0.6 4 -0.1
v -0.6 4 -0.2
v -0.6 4 -0.3
v -0.6 4 -0.4
v -0.6 4 -0.5
v -0.6 4.1 0.6
v -0.6 4.1 0.4
v -0.6 4.1 0.3
v -0.6 4.1 0.2
v -0.6 4.1 0.0999998
v -0.6 4.1 -1.78814e-07
v -0.6 4.1 -0.1
v -0.6 4.1 -0.2
v -0.6 4.1 -0.3
v -0.6 4.1 -0.4
v -0.6 4.1 -0.5
v -0.6 4.2 0.6
v -0.6 4.2 0.3
v -0.6 4.2 -0.2
v -0.6 4.2 -0.5
v -0.6 4.3 0.0999998
v -0.6 4.3 -1.78814e-07
v -0.6 4.3 -0.1
v -0.6 4.4 0.6
v -0.6 4.4 0.3
v -0.6 4.4 -0.4
v -0.6 4.4 -0.5
v -0.6 4.5 0.6
v -0.6 4.5 0.5
v -0.6 4.6 0.6
v -0.6 4.6 0.5
v -0.6 4.6 0.3
v -0.6 4.6 -0.4
v -0.6 4.7 0.6
v -0.6 4.7 0.4
v -0.6 4.7 -0.3
v -0.6 4.7 -0.5
v -0.6 4.8 0.4
v -0.6 4.8 -0.3
v -0.5 3.7 0.7
v -0.5 3.7 0.6
v -0.5 3.7 -0.5
v -0.5 3.7 -0.6
v -0.5 3.8 -0.5
v -0.5 3.8 -0.6
v -0.5 4 0.6
v -0.5 4 -0.5
v -0.5 4 -0.6
v -0.5 4.1 0.7
v -0.5 4.1 0.6
v -0.5 4.1 -0.5
v -0.5 4.2 0.6
v -0.5 4.2 -0.5
v -0.5 4.4 0.6
v -0.5 4.4 -0.5
v -0.5 4.5 0.7
v -0.5 4.5 0.6
v -0.5 4.5 -0.5
v -0.5 4.5 -0.6
v -0.5 4.6 0.6
v -0.5 4.7 0.7
v -0.5 4.7 0.6
v -0.5 4.7 0.4
v -0.5 4.7 -0.3
v -0.5 4.7 -0.5
v -0.5 4.7 -0.6
v -0.5 4.8 0.6
v -0.5 4.8 0.4
v -0.5 4.8 -0.3
v -0.5 4.8 -0.5
v -0.2 3.9 0.8
v -0.2 3.9 0.7
v -0.2 3.9 -0.6
v -0.2 3.9 -0.7
v -0.2 4 0.7
v -0.2 4.1 -0.6
v -0.2 4.2 0.8
v -0.2 4.2 0.7
v -0.2 4.2 -0.6
v -0.2 4.2 -0.7
v -0.1 3.9 0.8
v -0.1 3.9 0.7
v -0.1 3.9 -0.6
v -0.1 3.9 -0.7
v -0.1 4.2 0.8
v -0.1 4.2 0.7
v -0.1 4.2 -0.6
v -0.1 4.2 -0.7
v 0.2 3.6 0.6
v 0.2 3.6 -0.5
v 0.2 3.7 0.7
v 0.2 3.7 0.6
v 0.2 3.7 0.5
v 0.2 3.7 -0.4
v 0.2 3.7 -0.5
v 0.2 3.7 -0.6
v 0.2 3.8 0.7
v 0.2 3.8 0.6
v 0.2 3.8 0.5
v 0.2 3.8 -0.4
v 0.2 3.8 -0.5
v 0.2 3.8 -0.6
v 0.2 3.9 0.6
v 0.2 3.9 -0.5
v 0.2 4.2 0.6
v 0.2 4.2 -0.5
v 0.2 4.3 0.7
v 0.2 4.3 0.6
v 0.2 4.3 -0.5
v 0.2 4.3 -0.6
v 0.2 4.7 0.7
v 0.2 4.7 0.6
v 0.2 4.7 0.4
v 0.2 4.7 -0.3
v 0.2 4.7 -0.5
v 0.2 4.7 -0.6
v 0.2 4.8 0.6
v 0.2 4.8 0.4
v 0.2 4.8 -0.3
v 0.2 4.8 -0.5
v 0.3 3.7 0.5
v 0.3 3.7 -0.4
v 0.3 3.8 0.6
v 0.3 3.8 0.5
v 0.3 3.8 -0.4
v 0.3 3.8 -0.5
v 0.3 3.9 0.6
v 0.3 3.9 0.5
v 0.3 3.9 -0.4
v 0.3 3.9 -0.5
v 0.3 4.2 0.6
v 0.3 4.2 0.5
v 0.3 4.2 -0.4
v 0.3 4.2 -0.5
v 0.3 4.7 0.6
v 0.3 4.7 0.5
v 0.3 4.7 0.4
v 0.3 4.7 -0.3
v 0.3 4.7 -0.4
v 0.3 4.7 -0.5
v 0.3 4.8 0.4
v 0.3 4.8 -0.3
v 0.4 3.8 0.5
v 0.4 3.8 -0.4
v 0.4 3.9 0.5
v 0.4 3.9 0.4
v 0.4 3.9 -0.3
v 0.4 3.9 -0.4
v 0.4 4.2 0.5
v 0.4 4.2 0.4
v 0.4 4.2 -0.3
v 0.4 4.2 -0.4
v 0.4 4.7 0.5
v 0.4 4.7 0.4
v 0.4 4.7 -0.3
v 0.4 4.7 -0.4
v 0.5 3.9 0.4
v 0.5 3.9 -0.3
v 0.5 4.1 0.3
v 0.5 4.1 -0.1
v 0.5 4.1 -0.2
v 0.5 4.2 0.4
v 0.5 4.2 0.3
v 0.5 4.2 -0.1
v 0.5 4.2 -0.2
v 0.5 4.2 -0.3
v 0.5 4.7 0.4
v 0.5 4.7 -0.3
v -0.2 3.9 0.8
v -0.2 4.2 0.8
v -0.1 3.9 0.8
v -0.1 4.2 0.8
v -0.5 3.7 0.7
v -0.5 4.1 0.7
v -0.5 4.5 0.7
v -0.5 4.7 0.7
v -0.4 3.7 0.7
v -0.4 4.1 0.7
v -0.4 4.3 0.7
v -0.3 3.9 0.7
v -0.3 4 0.7
v -0.3 4.3 0.7
v -0.3 4.4 0.7
v -0.3 4.5 0.7
v -0.2 3.8 0.7
v -0.2 3.9 0.7
v -0.2 4 0.7
v -0.2 4.2 0.7
v -0.1 3.7 0.7
v -0.1 3.8 0.7
v -0.1 3.9 0.7
v -0.1 4.2 0.7
v -0.1 4.3 0.7
v -0.1 4.4 0.7
v -5.96046e-08 3.8 0.7
v -5.96046e-08 3.9 0.7
v 0.2 3.7 0.7
v 0.2 3.8 0.7
v 0.2 4.3 0.7
v 0.2 4.7 0.7
v -0.6 3.6 0.6
v -0.6 4 0.6
v -0.6 4.1 0.6
v -0.6 4.2 0.6
v -0.6 4.4 0.6
v -0.6 4.5 0.6
v -0.6 4.6 0.6
v -0.6 4.7 0.6
v -0.5 3.7 0.6
v -0.5 4 0.6
v -0.5 4.1 0.6
v -0.5 4.2 0.6
v -0.5 4.4 0.6
v -0.5 4.5 0.6
v -0.5 4.6 0.6
v -0.5 4.7 0.6
v -0.5 4.8 0.6
v -0.4 3.7 0.6
v -0.1 3.7 0.6
v -5.96046e-08 3.6 0.6
v -5.96046e-08 3.7 0.6
v 0.2 3.6 0.6
v 0.2 3.7 0.6
v 0.2 3.8 0.6
v 0.2 3.9 0.6
v 0.2 4.2 0.6
v 0.2 4.3 0.6
v 0.2 4.7 0.6
v 0.2 4.8 0.6
v 0.3 3.8 0.6
v 0.3 3.9 0.6
v 0.3 4.2 0.6
v 0.3 4.7 0.6
v 0.2 3.7 0.5
v 0.2 3.8 0.5
v 0.3 3.7 0.5
v 0.3 3.8 0.5
v 0.3 3.9 0.5
v 0.3 4.2 0.5
v 0.3 4.7 0.5
v 0.4 3.8 0.5
v 0.4 3.9 0.5
v 0.4 4.2 0.5
v 0.4 4.7 0.5
v -0.6 4.7 0.4
v -0.6 4.8 0.4
v -0.5 4.7 0.4
v -0.5 4.8 0.4
v 0.2 4.7 0.4
v 0.2 4.8 0.4
v 0.3 4.7 0.4
v 0.3 4.8 0.4
v 0.4 3.9 0.4
v 0.4 4.2 0.4
v 0.4 4.7 0.4
v 0.5 3.9 0.4
v 0.5 4.2 0.4
v 0.5 4.7 0.4
v -0.6 4.7 -0.3
v -0.6 4.8 -0.3
v -0.5 4.7 -0.3
v -0.5 4.8 -0.3
v 0.2 4.7 -0.3
v 0.2 4.8 -0.3
v 0.3 4.7 -0.3
v 0.3 4.8 -0.3
v 0.4 3.9 -0.3
v 0.4 4.2 -0.3
v 0.4 4.7 -0.3
v 0.5 3.9 -0.3
v 0.5 4.2 -0.3
v 0.5 4.7 -0.3
v 0.2 3.7 -0.4
v 0.2 3.8 -0.4
v 0.3 3.7 -0.4
v 0.3 3.8 -0.4
v 0.3 3.9 -0.4
v 0.3 4.2 -0.4
v 0.3 4.7 -0.4
v 0.4 3.8 -0.4
v 0.4 3.9 -0.4
v 0.4 4.2 -0.4
v 0.4 4.7 -0.4
v -0.6 3.6 -0.5
v -0.6 4 -0.5
v -0.6 4.1 -0.5
v -0.6 4.2 -0.5
v -0.6 4.4 -0.5
v -0.6 4.7 -0.5
v -0.5 3.7 -0.5
v -0.5 3.8 -0.5
v -0.5 4 -0.5
v -0.5 4.1 -0.5
v -0.5 4.2 -0.5
v -0.5 4.4 -0.5
v -0.5 4.5 -0.5
v -0.5 4.7 -0.5
v -0.5 4.8 -0.5
v -0.3 3.7 -0.5
v -5.96046e-08 3.6 -0.5
v -5.96046e-08 3.7 -0.5
v 0.2 3.6 -0.5
v 0.2 3.7 -0.5
v 0.2 3.8 -0.5
v 0.2 3.9 -0.5
v 0.2 4.2 -0.5
v 0.2 4.3 -0.5
v 0.2 4.7 -0.5
v 0.2 4.8 -0.5
v 0.3 3.8 -0.5
v 0.3 3.9 -0.5
v 0.3 4.2 -0.5
v 0.3 4.7 -0.5
v -0.5 3.7 -0.6
v -0.5 3.8 -0.6
v -0.5 4 -0.6
v -0.5 4.5 -0.6
v -0.5 4.7 -0.6
v -0.4 3.8 -0.6
v -0.4 3.9 -0.6
v -0.4 4 -0.6
v -0.4 4.3 -0.6
v -0.3 3.7 -0.6
v -0.3 3.8 -0.6
v -0.3 3.9 -0.6
v -0.3 4.1 -0.6
v -0.3 4.4 -0.6
v -0.3 4.5 -0.6
v -0.2 3.8 -0.6
v -0.2 3.9 -0.6
v -0.2 4.1 -0.6
v -0.2 4.2 -0.6
v -0.2 4.3 -0.6
v -0.1 3.9 -0.6
v -0.1 4.2 -0.6
v -0.1 4.3 -0.6
v -0.1 4.4 -0.6
v -5.96046e-08 3.8 -0.6
v -5.96046e-08 3.9 -0.6
v 0.2 3.7 -0.6
v 0.2 3.8 -0.6
v 0.2 4.3 -0.6
v 0.2 4.7 -0.6
v -0.2 3.9 -0.7
v -0.2 4.2 -0.7
v -0.1 3.9 -0.7
v -0.1 4.2 -0.7
v -0.6 3.6 0.6
v -5.96046e-08 3.6 0.6
v 0.2 3.6 0.6
v -5.96046e-08 3.6 0.4
v 0.1 3.6 0.4
v -5.96046e-08 3.6 -0.3
v 0.1 3.6 -0.3
v -0.6 3.6 -0.5
v -5.96046e-08 3.6 -0.5
v 0.2 3.6 -0.5
v -0.5 3.7 0.7
v -0.4 3.7 0.7
v -0.1 3.7 0.7
v 0.2 3.7 0.7
v -0.5 3.7 0.6
v -0.4 3.7 0.6
v -0.1 3.7 0.6
v -5.96046e-08 3.7 0.6
v 0.2 3.7 0.6
v 0.2 3.7 0.5
v 0.3 3.7 0.5
v 0.2 3.7 -0.4
v 0.3 3.7 -0.4
v -0.5 3.7 -0.5
v -0.3 3.7 -0.5
v -5.96046e-08 3.7 -0.5
v 0.2 3.7 -0.5
v -0.5 3.7 -0.6
v -0.3 3.7 -0.6
v 0.2 3.7 -0.6
v 0.2 3.8 0.6
v 0.3 3.8 0.6
v 0.2 3.8 0.5
v 0.3 3.8 0.5
v 0.4 3.8 0.5
v 0.2 3.8 -0.4
v 0.3 3.8 -0.4
v 0.4 3.8 -0.4
v 0.2 3.8 -0.5
v 0.3 3.8 -0.5
v -0.2 3.9 0.8
v -0.1 3.9 0.8
v -0.2 3.9 0.7
v -0.1 3.9 0.7
v 0.4 3.9 0.4
v 0.5 3.9 0.4
v 0.4 3.9 -0.3
v 0.5 3.9 -0.3
v -0.2 3.9 -0.6
v -0.1 3.9 -0.6
v -0.2 3.9 -0.7
v -0.1 3.9 -0.7
v -0.2 4.2 0.8
v -0.1 4.2 0.8
v -0.2 4.2 0.7
v -0.1 4.2 0.7
v -0.2 4.2 -0.6
v -0.1 4.2 -0.6
v -0.2 4.2 -0.7
v -0.1 4.2 -0.7
v -0.5 4.7 0.7
v 0.2 4.7 0.7
v -0.6 4.7 0.6
v -0.5 4.7 0.6
v 0.2 4.7 0.6
v 0.3 4.7 0.6
v 0.3 4.7 0.5
v 0.4 4.7 0.5
v -0.6 4.7 0.4
v -0.5 4.7 0.4
v 0.2 4.7 0.4
v 0.3 4.7 0.4
v 0.4 4.7 0.4
v 0.5 4.7 0.4
v -0.6 4.7 -0.3
v -0.5 4.7 -0.3
v 0.2 4.7 -0.3
v 0.3 4.7 -0.3
v 0.4 4.7 -0.3
v 0.5 4.7 -0.3
v 0.3 4.7 -0.4
v 0.4 4.7 -0.4
v -0.6 4.7 -0.5
v -0.5 4.7 -0.5
v 0.2 4.7 -0.5
v 0.3 4.7 -0.5
v -0.5 4.7 -0.6
v 0.2 4.7 -0.6
v -0.5 4.8 0.6
v 0.2 4.8 0.6
v -0.6 4.8 0.4
v -0.5 4.8 0.4
v 0.2 4.8 0.4
v 0.3 4.8 0.4
v -0.6 4.8 -0.3
v -0.5 4.8 -0.3
v 0.2 4.8 -0.3
v 0.3 4.8 -0.3
v -0.5 4.8 -0.5
v 0.2 4.8 -0.5

# faces
f 3/1/1 2/1/1 1/1/1
f 4/1/1 2/1/1 3/1/1
f 5/1/1 2/1/1 4/1/1
f 6/1/1 2/1/1 5/1/1
f 7/1/1 2/1/1 6/1/1
f 8/1/1 2/1/1 7/1/1
f 9/1/1 3/1/1 1/1/1
f 10/2/1 4/2/1 3/2/1
f 10/1/1 3/1/1 9/1/1
f 11/2/1 4/2/1 10/2/1
f 12/7/1 5/7/1 4/7/1
f 12/2/1 4/2/1 11/2/1
f 13/1/1 6/1/1 5/1/1
f 13/7/1 5/7/1 12/7/1
f 14/1/1 6/1/1 13/1/1
f 15/7/1 7/7/1 6/7/1
f 15/1/1 6/1/1 14/1/1
f 16/2/1 8/2/1 7/2/1
f 16/7/1 7/7/1 15/7/1
f 17/2/1 8/2/1 16/2/1
f 18/1/1 2/1/1 8/1/1
f 18/2/1 8/2/1 17/2/1
f 19/1/1 2/1/1 18/1/1
f 20/8/1 11/8/1 10/8/1
f 20/8/1 10/8/1 9/8/1
f 21/4/1 12/4/1 11/4/1
f 21/8/1 11/8/1 20/8/1
f 22/7/1 13/7/1 12/7/1
f 22/4/1 12/4/1 21/4/1
f 23/6/1 14/6/1 13/6/1
f 23/7/1 13/7/1 22/7/1
f 24/5/1 15/5/1 14/5/1
f 24/6/1 14/6/1 23/6/1
f 25/5/1 15/5/1 24/5/1
f 26/7/1 16/7/1 15/7/1
f 26/5/1 15/5/1 25/5/1
f 27/8/1 17/8/1 16/8/1
f 27/7/1 16/7/1 26/7/1
f 28/4/1 18/4/1 17/4/1
f 28/8/1 17/8/1 27/8/1
f 29/8/1 19/8/1 18/8/1
f 29/4/1 18/4/1 28/4/1
f 30/8/1 19/8/1 29/8/1
f 31/7/1 22/7/1 21/7/1
f 31/7/1 21/7/1 20/7/1
f 32/1/1 23/1/1 22/1/1
f 32/7/1 22/7/1 31/7/1
f 32/1/1 24/1/1 23/1/1
f 33/7/1 28/7/1 27/7/1
f 33/7/1 30/7/1 29/7/1
f 33/1/1 27/1/1 26/1/1
f 33/7/1 29/7/1 28/7/1
f 34/7/1 30/7/1 33/7/1
f 35/1/1 24/1/1 32/1/1
f 35/1/1 32/1/1 31/1/1
f 35/6/1 25/6/1 24/6/1
f 36/5/1 26/5/1 25/5/1
f 36/6/1 25/6/1 35/6/1
f 37/1/1 34/1/1 33/1/1
f 37/5/1 26/5/1 36/5/1
f 37/1/1 33/1/1 26/1/1
f 38/1/1 35/1/1 31/1/1
f 38/1/1 36/1/1 35/1/1
f 38/1/1 37/1/1 36/1/1
f 39/1/1 37/1/1 38/1/1
f 40/1/1 34/1/1 37/1/1
f 40/1/1 37/1/1 39/1/1
f 41/1/1 34/1/1 40/1/1
f 42/5/1 39/5/1 38/5/1
f 43/5/1 39/5/1 42/5/1
f 44/6/1 43/6/1 42/6/1
f 45/5/1 39/5/1 43/5/1
f 45/6/1 43/6/1 44/6/1
f 46/1/1 40/1/1 39/1/1
f 46/5/1 39/5/1 45/5/1
f 47/5/1 41/5/1 40/5/1
f 47/1/1 40/1/1 46/1/1
f 48/5/1 45/5/1 44/5/1
f 48/5/1 46/5/1 45/5/1
f 48/5/1 47/5/1 46/5/1
f 49/5/1 47/5/1 48/5/1
f 50/5/1 47/5/1 49/5/1
f 51/5/1 41/5/1 47/5/1
f 51/5/1 47/5/1 50/5/1
f 52/5/1 50/5/1 49/5/1
f 53/5/1 50/5/1 52/5/1
f 58/1/1 57/1/1 56/1/1
f 59/1/1 57/1/1 58/1/1
f 60/5/1 55/5/1 54/5/1
f 61/5/1 59/5/1 58/5/1
f 62/5/1 59/5/1 61/5/1
f 63/5/1 60/5/1 54/5/1
f 64/5/1 60/5/1 63/5/1
f 65/6/1 62/6/1 61/6/1
f 66/6/1 64/6/1 63/6/1
f 67/6/1 62/6/1 65/6/1
f 68/6/1 66/6/1 63/6/1
f 69/6/1 62/6/1 67/6/1
f 70/6/1 68/6/1 63/6/1
f 71/6/1 68/6/1 70/6/1
f 72/6/1 62/6/1 69/6/1
f 73/6/1 62/6/1 72/6/1
f 74/5/1 71/5/1 70/5/1
f 75/5/1 74/5/1 70/5/1
f 76/5/1 74/5/1 75/5/1
f 79/5/1 73/5/1 72/5/1
f 80/5/1 73/5/1 79/5/1
f 81/5/1 77/5/1 76/5/1
f 82/5/1 77/5/1 81/5/1
f 83/5/1 79/5/1 78/5/1
f 84/5/1 79/5/1 83/5/1
f 89/1/1 86/1/1 85/1/1
f 90/1/1 88/1/1 87/1/1
f 91/1/1 89/1/1 85/1/1
f 92/1/1 89/1/1 91/1/1
f 93/1/1 88/1/1 90/1/1
f 94/1/1 88/1/1 93/1/1
f 95/1/2 96/1/2 99/1/2
f 99/1/2 96/1/2 100/1/2
f 97/1/2 98/1/2 101/1/2
f 101/1/2 98/1/2 102/1/2
f 103/5/2 104/5/2 106/5/2
f 106/5/2 104/5/2 107/5/2
f 107/5/2 104/5/2 108/5/2
f 108/5/2 104/5/2 109/5/2
f 105/5/2 106/5/2 111/5/2
f 106/5/2 107/5/2 111/5/2
f 111/5/2 107/5/2 112/5/2
f 112/5/2 107/5/2 113/5/2
f 109/5/2 110/5/2 114/5/2
f 108/5/2 109/5/2 114/5/2
f 114/5/2 110/5/2 115/5/2
f 115/5/2 110/5/2 116/5/2
f 111/6/2 112/6/2 117/6/2
f 115/6/2 116/6/2 118/6/2
f 111/6/2 117/6/2 119/6/2
f 118/6/2 116/6/2 120/6/2
f 111/6/2 119/6/2 121/6/2
f 121/6/2 119/6/2 122/6/2
f 120/6/2 116/6/2 123/6/2
f 123/6/2 116/6/2 124/6/2
f 121/5/2 122/5/2 125/5/2
f 125/5/2 122/5/2 126/5/2
f 123/5/2 124/5/2 129/5/2
f 129/5/2 124/5/2 130/5/2
f 126/5/2 127/5/2 131/5/2
f 131/5/2 127/5/2 132/5/2
f 128/5/2 129/5/2 133/5/2
f 133/5/2 129/5/2 134/5/2
f 135/5/2 136/5/2 138/5/2
f 138/5/2 136/5/2 139/5/2
f 137/5/2 138/5/2 141/5/2
f 141/5/2 138/5/2 142/5/2
f 139/5/2 140/5/2 143/5/2
f 143/5/2 140/5/2 144/5/2
f 141/6/2 142/6/2 145/6/2
f 145/6/2 142/6/2 146/6/2
f 143/6/2 144/6/2 147/6/2
f 147/6/2 144/6/2 148/6/2
f 145/5/2 146/5/2 149/5/2
f 149/5/2 146/5/2 150/5/2
f 147/5/2 148/5/2 153/5/2
f 153/5/2 148/5/2 154/5/2
f 151/5/2 152/5/2 155/5/2
f 155/5/2 152/5/2 156/5/2
f 157/5/2 158/5/2 159/5/2
f 159/5/2 158/5/2 160/5/2
f 160/5/2 158/5/2 161/5/2
f 161/5/2 158/5/2 162/5/2
f 159/6/2 160/6/2 163/6/2
f 163/6/2 160/6/2 164/6/2
f 161/6/2 162/6/2 165/6/2
f 165/6/2 162/6/2 166/6/2
f 163/5/2 164/5/2 167/5/2
f 167/5/2 164/5/2 168/5/2
f 165/5/2 166/5/2 169/5/2
f 169/5/2 166/5/2 170/5/2
f 171/6/2 172/6/2 173/6/2
f 173/6/2 172/6/2 174/6/2
f 174/6/2 172/6/2 175/6/2
f 171/6/2 173/6/2 176/6/2
f 173/5/2 174/5/2 177/5/2
f 176/6/2 173/6/2 177/6/2
f 174/3/2 175/3/2 178/3/2
f 177/5/2 174/5/2 178/5/2
f 175/6/2 172/6/2 179/6/2
f 178/3/2 175/3/2 179/3/2
f 179/6/2 172/6/2 180/6/2
f 177/5/2 178/5/2 181/5/2
f 176/5/2 177/5/2 181/5/2
f 179/5/2 180/5/2 181/5/2
f 178/5/2 179/5/2 181/5/2
f 181/5/2 180/5/2 182/5/2
f 185/1/3 184/1/3 183/1/3
f 186/1/3 184/1/3 185/1/3
f 191/5/3 188/5/3 187/5/3
f 192/6/3 189/6/3 188/6/3
f 192/5/3 188/5/3 191/5/3
f 193/6/3 189/6/3 192/6/3
f 194/1/3 192/1/3 191/1/3
f 194/1/3 193/1/3 192/1/3
f 195/1/3 193/1/3 194/1/3
f 196/6/3 189/6/3 193/6/3
f 196/1/3 193/1/3 195/1/3
f 197/6/3 189/6/3 196/6/3
f 198/5/3 190/5/3 189/5/3
f 198/6/3 189/6/3 197/6/3
f 199/1/3 194/1/3 191/1/3
f 200/5/3 195/5/3 194/5/3
f 200/1/3 194/1/3 199/1/3
f 201/6/3 197/6/3 196/6/3
f 201/5/3 195/5/3 200/5/3
f 201/6/3 196/6/3 195/6/3
f 202/6/3 197/6/3 201/6/3
f 203/1/3 199/1/3 191/1/3
f 204/5/3 200/5/3 199/5/3
f 204/1/3 199/1/3 203/1/3
f 205/5/3 200/5/3 204/5/3
f 206/6/3 197/6/3 202/6/3
f 207/6/3 197/6/3 206/6/3
f 208/5/3 198/5/3 197/5/3
f 208/6/3 197/6/3 207/6/3
f 209/5/3 205/5/3 204/5/3
f 209/5/3 204/5/3 203/5/3
f 210/6/3 207/6/3 206/6/3
f 210/5/3 205/5/3 209/5/3
f 210/6/3 206/6/3 205/6/3
f 211/5/3 209/5/3 203/5/3
f 212/6/3 210/6/3 209/6/3
f 212/5/3 209/5/3 211/5/3
f 213/6/3 207/6/3 210/6/3
f 213/6/3 210/6/3 212/6/3
f 213/5/3 208/5/3 207/5/3
f 214/5/3 198/5/3 208/5/3
f 214/5/3 208/5/3 213/5/3
f 214/5/3 190/5/3 198/5/3
f 223/1/3 216/1/3 215/1/3
f 224/8/3 217/8/3 216/8/3
f 224/1/3 216/1/3 223/1/3
f 225/7/3 218/7/3 217/7/3
f 225/8/3 217/8/3 224/8/3
f 226/1/3 219/1/3 218/1/3
f 226/7/3 218/7/3 225/7/3
f 227/5/3 220/5/3 219/5/3
f 227/1/3 219/1/3 226/1/3
f 228/6/3 221/6/3 220/6/3
f 228/5/3 220/5/3 227/5/3
f 229/5/3 222/5/3 221/5/3
f 229/6/3 221/6/3 228/6/3
f 230/5/3 222/5/3 229/5/3
f 232/1/3 223/1/3 215/1/3
f 233/1/3 232/1/3 215/1/3
f 234/1/3 233/1/3 215/1/3
f 235/1/3 233/1/3 234/1/3
f 236/5/3 235/5/3 234/5/3
f 237/5/3 235/5/3 236/5/3
f 242/5/3 231/5/3 230/5/3
f 243/5/3 231/5/3 242/5/3
f 244/5/3 239/5/3 238/5/3
f 245/6/3 240/6/3 239/6/3
f 245/5/3 239/5/3 244/5/3
f 246/5/3 241/5/3 240/5/3
f 246/6/3 240/6/3 245/6/3
f 246/5/3 242/5/3 241/5/3
f 247/5/3 242/5/3 246/5/3
f 250/5/3 249/5/3 248/5/3
f 251/5/3 249/5/3 250/5/3
f 255/5/3 252/5/3 251/5/3
f 256/6/3 253/6/3 252/6/3
f 256/5/3 252/5/3 255/5/3
f 257/5/3 254/5/3 253/5/3
f 257/6/3 253/6/3 256/6/3
f 258/5/3 254/5/3 257/5/3
f 261/5/3 260/5/3 259/5/3
f 262/5/3 260/5/3 261/5/3
f 265/5/3 264/5/3 263/5/3
f 266/5/3 264/5/3 265/5/3
f 270/6/3 268/6/3 267/6/3
f 271/5/3 269/5/3 268/5/3
f 271/6/3 268/6/3 270/6/3
f 272/5/3 269/5/3 271/5/3
f 273/5/4 274/5/4 275/5/4
f 275/5/4 274/5/4 276/5/4
f 277/5/4 278/5/4 279/5/4
f 279/5/4 278/5/4 280/5/4
f 281/6/4 282/6/4 284/6/4
f 282/5/4 283/5/4 285/5/4
f 284/6/4 282/6/4 285/6/4
f 285/5/4 283/5/4 286/5/4
f 287/5/4 288/5/4 289/5/4
f 289/5/4 288/5/4 290/5/4
f 290/5/4 291/5/4 294/5/4
f 291/6/4 292/6/4 295/6/4
f 294/5/4 291/5/4 295/5/4
f 292/5/4 293/5/4 296/5/4
f 295/6/4 292/6/4 296/6/4
f 296/5/4 293/5/4 297/5/4
f 298/1/4 299/1/4 304/1/4
f 304/1/4 299/1/4 305/1/4
f 299/8/4 300/8/4 306/8/4
f 305/1/4 299/1/4 306/1/4
f 300/7/4 301/7/4 307/7/4
f 306/8/4 300/8/4 307/8/4
f 301/1/4 302/1/4 308/1/4
f 307/7/4 301/7/4 308/7/4
f 302/5/4 303/5/4 309/5/4
f 308/1/4 302/1/4 309/1/4
f 309/5/4 303/5/4 310/5/4
f 310/5/4 303/5/4 311/5/4
f 298/1/4 304/1/4 313/1/4
f 298/1/4 313/1/4 314/1/4
f 314/1/4 313/1/4 315/1/4
f 314/5/4 315/5/4 316/5/4
f 316/5/4 315/5/4 317/5/4
f 311/5/4 312/5/4 322/5/4
f 322/5/4 312/5/4 323/5/4
f 318/5/4 319/5/4 324/5/4
f 319/6/4 320/6/4 325/6/4
f 324/5/4 319/5/4 325/5/4
f 320/5/4 321/5/4 326/5/4
f 325/6/4 320/6/4 326/6/4
f 321/5/4 322/5/4 326/5/4
f 326/5/4 322/5/4 327/5/4
f 328/1/4 329/1/4 333/1/4
f 329/5/4 330/5/4 333/5/4
f 333/5/4 330/5/4 334/5/4
f 330/6/4 331/6/4 335/6/4
f 334/5/4 330/5/4 335/5/4
f 335/6/4 331/6/4 336/6/4
f 333/1/4 334/1/4 337/1/4
f 328/1/4 333/1/4 337/1/4
f 337/1/4 334/1/4 338/1/4
f 335/5/4 336/5/4 339/5/4
f 338/1/4 334/1/4 339/1/4
f 334/5/4 335/5/4 339/5/4
f 339/5/4 336/5/4 340/5/4
f 336/6/4 331/6/4 341/6/4
f 331/5/4 332/5/4 342/5/4
f 341/6/4 331/6/4 342/6/4
f 337/5/4 338/5/4 343/5/4
f 338/1/4 339/1/4 343/1/4
f 339/1/4 340/1/4 343/1/4
f 343/1/4 340/1/4 344/1/4
f 340/5/4 336/5/4 345/5/4
f 344/1/4 340/1/4 345/1/4
f 345/5/4 336/5/4 346/5/4
f 336/6/4 341/6/4 347/6/4
f 346/5/4 336/5/4 347/5/4
f 343/5/4 344/5/4 348/5/4
f 346/6/4 347/6/4 349/6/4
f 347/6/4 341/6/4 350/6/4
f 349/6/4 347/6/4 350/6/4
f 341/5/4 342/5/4 351/5/4
f 350/6/4 341/6/4 351/6/4
f 343/5/4 348/5/4 352/5/4
f 337/5/4 343/5/4 352/5/4
f 348/6/4 349/6/4 353/6/4
f 352/5/4 348/5/4 353/5/4
f 349/6/4 350/6/4 353/6/4
f 337/5/4 352/5/4 354/5/4
f 352/6/4 353/6/4 355/6/4
f 354/5/4 352/5/4 355/5/4
f 353/6/4 350/6/4 356/6/4
f 355/6/4 353/6/4 356/6/4
f 350/5/4 351/5/4 356/5/4
f 351/5/4 342/5/4 357/5/4
f 356/5/4 351/5/4 357/5/4
f 342/5/4 332/5/4 357/5/4
f 358/1/4 359/1/4 360/1/4
f 360/1/4 359/1/4 361/1/4
f 365/1/5 363/1/5 362/1/5
f 365/5/5 364/5/5 363/5/5
f 366/5/5 364/5/5 365/5/5
f 367/1/5 365/1/5 362/1/5
f 367/1/5 366/1/5 365/1/5
f 368/5/5 364/5/5 366/5/5
f 368/1/5 366/1/5 367/1/5
f 369/1/5 367/1/5 362/1/5
f 370/5/5 368/5/5 367/5/5
f 370/1/5 367/1/5 369/1/5
f 371/5/5 364/5/5 368/5/5
f 371/5/5 368/5/5 370/5/5
f 376/5/5 373/5/5 372/5/5
f 377/1/5 374/1/5 373/1/5
f 377/5/5 373/5/5 376/5/5
f 378/5/5 375/5/5 374/5/5
f 378/1/5 374/1/5 377/1/5
f 379/5/5 375/5/5 378/5/5
f 380/5/5 375/5/5 379/5/5
f 383/5/5 382/5/5 381/5/5
f 384/5/5 382/5/5 383/5/5
f 389/1/5 386/1/5 385/1/5
f 390/5/5 388/5/5 387/5/5
f 390/1/5 386/1/5 389/1/5
f 390/5/5 387/5/5 386/5/5
f 391/5/5 388/5/5 390/5/5
f 394/5/5 393/5/5 392/5/5
f 395/5/5 393/5/5 394/5/5
f 398/5/5 396/5/5 395/5/5
f 399/5/5 396/5/5 398/5/5
f 400/5/5 398/5/5 397/5/5
f 401/5/5 398/5/5 400/5/5
f 404/1/5 403/1/5 402/1/5
f 405/1/5 403/1/5 404/1/5
f 408/6/5 407/6/5 406/6/5
f 409/6/5 407/6/5 408/6/5
f 412/1/5 411/1/5 410/1/5
f 413/1/5 411/1/5 412/1/5
f 414/1/6 415/1/6 416/1/6
f 416/1/6 415/1/6 417/1/6
f 418/1/6 419/1/6 420/1/6
f 420/1/6 419/1/6 421/1/6
f 422/5/6 423/5/6 425/5/6
f 425/5/6 423/5/6 426/5/6
f 426/5/6 427/5/6 428/5/6
f 424/5/6 425/5/6 430/5/6
f 430/5/6 425/5/6 431/5/6
f 428/5/6 429/5/6 432/5/6
f 426/5/6 428/5/6 432/5/6
f 432/5/6 429/5/6 433/5/6
f 433/5/6 429/5/6 434/5/6
f 434/5/6 435/5/6 439/5/6
f 433/5/6 434/5/6 439/5/6
f 439/5/6 435/5/6 440/5/6
f 440/5/6 435/5/6 441/5/6
f 438/5/6 439/5/6 442/5/6
f 439/5/6 440/5/6 442/5/6
f 442/5/6 440/5/6 443/5/6
f 436/5/6 437/5/6 444/5/6
f 444/5/6 437/5/6 445/5/6
f 438/5/6 442/5/6 446/5/6
f 446/5/6 442/5/6 447/5/6
f 445/5/6 446/5/6 448/5/6
f 448/5/6 446/5/6 449/5/6
f 450/5/6 451/5/6 453/5/6
f 453/5/6 451/5/6 454/5/6
f 452/5/6 453/5/6 456/5/6
f 454/5/6 455/5/6 456/5/6
f 453/5/6 454/5/6 456/5/6
f 456/5/6 455/5/6 457/5/6
f 457/5/6 455/5/6 458/5/6
f 458/5/6 455/5/6 459/5/6
f 457/5/6 458/5/6 460/5/6
f 460/5/6 458/5/6 461/5/6
