# MagicaVoxel @ Ephtracy

# group
o Lleg1

# material
mtllib pracGenny-9-Lleg1.mtl
usemtl palette

# normals
vn -1 0 0
vn 1 0 0
vn 0 0 1
vn 0 0 -1
vn 0 -1 0
vn 0 1 0

# texcoords
vt 0.0253906 0.5
vt 0.0292969 0.5
vt 0.826172 0.5
vt 0.830078 0.5

# verts
v -0.3 1.6 -9.68575e-08
v -0.3 1.6 -0.1
v -0.3 1.6 -0.3
v -0.3 2.1 -9.68575e-08
v -0.3 2.1 -0.1
v -0.3 2.1 -0.3
v -0.3 2.5 -9.68575e-08
v -0.3 2.5 -0.1
v -0.3 2.5 -0.3
v 1.49012e-07 1.6 -9.68575e-08
v 1.49012e-07 1.6 -0.1
v 1.49012e-07 1.6 -0.3
v 1.49012e-07 2.1 -9.68575e-08
v 1.49012e-07 2.1 -0.1
v 1.49012e-07 2.1 -0.3
v 1.49012e-07 2.5 -9.68575e-08
v 1.49012e-07 2.5 -0.3
v -0.3 1.6 -9.68575e-08
v -0.3 2.1 -9.68575e-08
v -0.3 2.5 -9.68575e-08
v 1.49012e-07 1.6 -9.68575e-08
v 1.49012e-07 2.1 -9.68575e-08
v 1.49012e-07 2.5 -9.68575e-08
v -0.3 1.6 -0.3
v -0.3 2.1 -0.3
v -0.3 2.5 -0.3
v -0.0999998 2.1 -0.3
v -0.0999998 2.5 -0.3
v 1.49012e-07 1.6 -0.3
v 1.49012e-07 2.1 -0.3
v 1.49012e-07 2.5 -0.3
v -0.3 1.6 -9.68575e-08
v 1.49012e-07 1.6 -9.68575e-08
v -0.3 1.6 -0.1
v 1.49012e-07 1.6 -0.1
v -0.3 1.6 -0.3
v 1.49012e-07 1.6 -0.3
v -0.3 2.5 -9.68575e-08
v 1.49012e-07 2.5 -9.68575e-08
v -0.3 2.5 -0.1
v -0.2 2.5 -0.1
v -0.0999998 2.5 -0.1
v -0.2 2.5 -0.2
v -0.0999998 2.5 -0.2
v -0.3 2.5 -0.3
v -0.0999998 2.5 -0.3
v 1.49012e-07 2.5 -0.3

# faces
f 4/1/1 2/1/1 1/1/1
f 5/2/1 3/2/1 2/2/1
f 5/1/1 2/1/1 4/1/1
f 6/2/1 3/2/1 5/2/1
f 7/3/1 5/3/1 4/3/1
f 8/4/1 6/4/1 5/4/1
f 8/3/1 5/3/1 7/3/1
f 9/4/1 6/4/1 8/4/1
f 10/1/2 11/1/2 13/1/2
f 11/2/2 12/2/2 14/2/2
f 13/1/2 11/1/2 14/1/2
f 14/2/2 12/2/2 15/2/2
f 13/3/2 14/3/2 16/3/2
f 14/3/2 15/3/2 16/3/2
f 16/3/2 15/3/2 17/3/2
f 21/1/3 19/1/3 18/1/3
f 22/3/3 20/3/3 19/3/3
f 22/1/3 19/1/3 21/1/3
f 23/3/3 20/3/3 22/3/3
f 24/2/4 25/2/4 27/2/4
f 25/4/4 26/4/4 27/4/4
f 27/4/4 26/4/4 28/4/4
f 24/2/4 27/2/4 29/2/4
f 27/3/4 28/3/4 30/3/4
f 29/2/4 27/2/4 30/2/4
f 30/3/4 28/3/4 31/3/4
f 34/1/5 33/1/5 32/1/5
f 35/1/5 33/1/5 34/1/5
f 36/2/5 35/2/5 34/2/5
f 37/2/5 35/2/5 36/2/5
f 38/3/6 39/3/6 40/3/6
f 40/3/6 39/3/6 41/3/6
f 41/3/6 39/3/6 42/3/6
f 40/4/6 41/4/6 43/4/6
f 41/2/6 42/2/6 43/2/6
f 42/3/6 39/3/6 44/3/6
f 43/2/6 42/2/6 44/2/6
f 40/4/6 43/4/6 45/4/6
f 43/4/6 44/4/6 45/4/6
f 44/3/6 39/3/6 46/3/6
f 45/4/6 44/4/6 46/4/6
f 46/3/6 39/3/6 47/3/6
