# MagicaVoxel @ Ephtracy

# group
o body

# material
mtllib pracGenny-3-body.mtl
usemtl palette

# normals
vn -1 0 0
vn 1 0 0
vn 0 0 1
vn 0 0 -1
vn 0 -1 0
vn 0 1 0

# texcoords
vt 0.00585938 0.5
vt 0.0214844 0.5
vt 0.0253906 0.5
vt 0.0292969 0.5
vt 0.0332031 0.5
vt 0.0644531 0.5
vt 0.958984 0.5

# verts
v -0.7 3.1 0.4
v -0.7 3.1 0.3
v -0.7 3.1 -0.2
v -0.7 3.1 -0.3
v -0.7 3.3 0.4
v -0.7 3.3 0.3
v -0.7 3.3 -0.2
v -0.7 3.3 -0.3
v -0.6 3.1 0.5
v -0.6 3.1 0.4
v -0.6 3.1 0.3
v -0.6 3.1 -0.2
v -0.6 3.1 -0.3
v -0.6 3.1 -0.4
v -0.6 3.2 0.0999999
v -0.6 3.2 -1.19209e-07
v -0.6 3.3 0.5
v -0.6 3.3 0.4
v -0.6 3.3 0.3
v -0.6 3.3 0.0999999
v -0.6 3.3 -1.19209e-07
v -0.6 3.3 -0.2
v -0.6 3.3 -0.3
v -0.6 3.3 -0.4
v -0.6 3.4 0.4
v -0.6 3.4 0.3
v -0.6 3.4 -0.2
v -0.6 3.4 -0.3
v -0.5 2.8 0.4
v -0.5 2.8 0.3
v -0.5 2.8 -0.2
v -0.5 2.8 -0.3
v -0.5 2.9 0.4
v -0.5 2.9 0.3
v -0.5 2.9 -0.2
v -0.5 2.9 -0.3
v -0.5 3.1 0.4
v -0.5 3.1 0.3
v -0.5 3.1 -0.2
v -0.5 3.1 -0.3
v -0.5 3.3 0.5
v -0.5 3.3 0.4
v -0.5 3.3 0.3
v -0.5 3.3 0.2
v -0.5 3.3 0.0999999
v -0.5 3.3 -1.19209e-07
v -0.5 3.3 -0.1
v -0.5 3.3 -0.2
v -0.5 3.3 -0.3
v -0.5 3.3 -0.4
v -0.5 3.4 0.5
v -0.5 3.4 0.4
v -0.5 3.4 0.3
v -0.5 3.4 0.2
v -0.5 3.4 0.0999999
v -0.5 3.4 -1.19209e-07
v -0.5 3.4 -0.1
v -0.5 3.4 -0.2
v -0.5 3.4 -0.3
v -0.5 3.4 -0.4
v -0.5 3.5 0.4
v -0.5 3.5 0.3
v -0.5 3.5 -0.2
v -0.5 3.5 -0.3
v -0.5 3.6 0.4
v -0.5 3.6 0.3
v -0.5 3.6 -0.2
v -0.5 3.6 -0.3
v -0.4 2.7 0.4
v -0.4 2.7 0.3
v -0.4 2.7 -0.2
v -0.4 2.7 -0.3
v -0.4 2.8 0.5
v -0.4 2.8 0.4
v -0.4 2.8 0.3
v -0.4 2.8 -0.2
v -0.4 2.8 -0.3
v -0.4 2.8 -0.4
v -0.4 2.9 0.5
v -0.4 2.9 0.4
v -0.4 2.9 0.3
v -0.4 2.9 -0.2
v -0.4 2.9 -0.3
v -0.4 2.9 -0.4
v -0.4 3 0.3
v -0.4 3 -0.2
v -0.4 3.1 0.5
v -0.4 3.1 0.4
v -0.4 3.1 0.3
v -0.4 3.1 -0.2
v -0.4 3.1 -0.3
v -0.4 3.1 -0.4
v -0.4 3.4 0.5
v -0.4 3.4 0.4
v -0.4 3.4 0.3
v -0.4 3.4 0.2
v -0.4 3.4 0.0999999
v -0.4 3.4 -1.19209e-07
v -0.4 3.4 -0.1
v -0.4 3.4 -0.2
v -0.4 3.4 -0.3
v -0.4 3.4 -0.4
v -0.4 3.5 0.5
v -0.4 3.5 0.4
v -0.4 3.5 0.3
v -0.4 3.5 0.2
v -0.4 3.5 -0.1
v -0.4 3.5 -0.2
v -0.4 3.5 -0.3
v -0.4 3.5 -0.4
v -0.4 3.6 0.5
v -0.4 3.6 0.4
v -0.4 3.6 0.3
v -0.4 3.6 0.2
v -0.4 3.6 -0.1
v -0.4 3.6 -0.2
v -0.4 3.6 -0.3
v -0.4 3.6 -0.4
v 5.96046e-08 3.4 0.5
v 5.96046e-08 3.4 0.4
v 5.96046e-08 3.4 -0.3
v 5.96046e-08 3.4 -0.4
v 5.96046e-08 3.6 0.5
v 5.96046e-08 3.6 0.4
v 5.96046e-08 3.6 -0.3
v 5.96046e-08 3.6 -0.4
v -0.2 3.4 0.5
v -0.2 3.4 0.4
v -0.2 3.4 -0.3
v -0.2 3.4 -0.4
v -0.2 3.6 0.5
v -0.2 3.6 0.4
v -0.2 3.6 -0.3
v -0.2 3.6 -0.4
v 0.1 2.7 0.4
v 0.1 2.7 -0.3
v 0.1 2.8 0.4
v 0.1 2.8 -0.3
v 0.2 2.8 0.5
v 0.2 2.8 -0.4
v 0.2 2.9 0.4
v 0.2 2.9 -0.3
v 0.2 3 0.0999999
v 0.2 3 -1.19209e-07
v 0.2 3.3 0.4
v 0.2 3.3 0.2
v 0.2 3.3 -0.1
v 0.2 3.3 -0.3
v 0.2 3.4 0.2
v 0.2 3.4 0.0999999
v 0.2 3.4 -1.19209e-07
v 0.2 3.4 -0.1
v 0.2 3.6 0.5
v 0.2 3.6 -0.4
v -0.6 3.1 0.5
v -0.6 3.3 0.5
v -0.5 3.3 0.5
v -0.5 3.4 0.5
v -0.4 2.8 0.5
v -0.4 2.9 0.5
v -0.4 3.1 0.5
v -0.4 3.4 0.5
v -0.4 3.5 0.5
v -0.4 3.6 0.5
v -0.3 3.2 0.5
v -0.3 3.3 0.5
v -0.3 3.5 0.5
v -0.3 3.6 0.5
v -0.2 3.3 0.5
v -0.2 3.4 0.5
v -0.2 3.6 0.5
v 5.96046e-08 3.4 0.5
v 5.96046e-08 3.6 0.5
v 0.1 2.9 0.5
v 0.1 3.2 0.5
v 0.1 3.4 0.5
v 0.1 3.6 0.5
v 0.2 2.8 0.5
v 0.2 3.6 0.5
v -0.7 3.1 0.4
v -0.7 3.3 0.4
v -0.6 3.1 0.4
v -0.6 3.3 0.4
v -0.6 3.4 0.4
v -0.5 2.8 0.4
v -0.5 2.9 0.4
v -0.5 3.1 0.4
v -0.5 3.3 0.4
v -0.5 3.4 0.4
v -0.5 3.5 0.4
v -0.5 3.6 0.4
v -0.4 2.7 0.4
v -0.4 2.8 0.4
v -0.4 2.9 0.4
v -0.4 3.1 0.4
v -0.4 3.4 0.4
v -0.4 3.5 0.4
v -0.4 3.6 0.4
v -0.2 3.4 0.4
v -0.2 3.6 0.4
v 5.96046e-08 3.4 0.4
v 5.96046e-08 3.6 0.4
v 0.1 2.7 0.4
v 0.1 2.8 0.4
v -0.7 3.1 -0.2
v -0.7 3.3 -0.2
v -0.6 3.1 -0.2
v -0.6 3.3 -0.2
v -0.6 3.4 -0.2
v -0.5 2.8 -0.2
v -0.5 2.9 -0.2
v -0.5 3.1 -0.2
v -0.5 3.3 -0.2
v -0.5 3.4 -0.2
v -0.5 3.5 -0.2
v -0.5 3.6 -0.2
v -0.4 2.8 -0.2
v -0.4 2.9 -0.2
v -0.4 3 -0.2
v -0.4 3.1 -0.2
v -0.4 3.4 -0.2
v -0.4 3.5 -0.2
v -0.4 3.6 -0.2
v -0.7 3.1 0.3
v -0.7 3.3 0.3
v -0.6 3.1 0.3
v -0.6 3.3 0.3
v -0.6 3.4 0.3
v -0.5 2.8 0.3
v -0.5 2.9 0.3
v -0.5 3.1 0.3
v -0.5 3.3 0.3
v -0.5 3.4 0.3
v -0.5 3.5 0.3
v -0.5 3.6 0.3
v -0.4 2.8 0.3
v -0.4 2.9 0.3
v -0.4 3 0.3
v -0.4 3.1 0.3
v -0.4 3.4 0.3
v -0.4 3.5 0.3
v -0.4 3.6 0.3
v -0.7 3.1 -0.3
v -0.7 3.3 -0.3
v -0.6 3.1 -0.3
v -0.6 3.3 -0.3
v -0.6 3.4 -0.3
v -0.5 2.8 -0.3
v -0.5 2.9 -0.3
v -0.5 3.1 -0.3
v -0.5 3.3 -0.3
v -0.5 3.4 -0.3
v -0.5 3.5 -0.3
v -0.5 3.6 -0.3
v -0.4 2.7 -0.3
v -0.4 2.8 -0.3
v -0.4 2.9 -0.3
v -0.4 3.1 -0.3
v -0.4 3.4 -0.3
v -0.4 3.5 -0.3
v -0.4 3.6 -0.3
v -0.2 3.4 -0.3
v -0.2 3.6 -0.3
v 5.96046e-08 3.4 -0.3
v 5.96046e-08 3.6 -0.3
v 0.1 2.7 -0.3
v 0.1 2.8 -0.3
v -0.6 3.1 -0.4
v -0.6 3.3 -0.4
v -0.5 3.3 -0.4
v -0.5 3.4 -0.4
v -0.4 2.8 -0.4
v -0.4 2.9 -0.4
v -0.4 3.1 -0.4
v -0.4 3.4 -0.4
v -0.4 3.5 -0.4
v -0.4 3.6 -0.4
v -0.3 3.2 -0.4
v -0.3 3.3 -0.4
v -0.3 3.5 -0.4
v -0.3 3.6 -0.4
v -0.2 3.4 -0.4
v -0.2 3.6 -0.4
v 5.96046e-08 3.4 -0.4
v 5.96046e-08 3.6 -0.4
v 0.1 2.9 -0.4
v 0.1 3.2 -0.4
v 0.1 3.3 -0.4
v 0.1 3.6 -0.4
v 0.2 2.8 -0.4
v 0.2 3.6 -0.4
v -0.4 2.7 0.4
v 0.1 2.7 0.4
v -0.4 2.7 0.3
v 5.96046e-08 2.7 0.3
v -0.4 2.7 -0.2
v 5.96046e-08 2.7 -0.2
v -0.4 2.7 -0.3
v 0.1 2.7 -0.3
v -0.4 2.8 0.5
v 0.2 2.8 0.5
v -0.5 2.8 0.4
v -0.4 2.8 0.4
v 0.1 2.8 0.4
v -0.5 2.8 0.3
v -0.4 2.8 0.3
v -0.5 2.8 -0.2
v -0.4 2.8 -0.2
v -0.5 2.8 -0.3
v -0.4 2.8 -0.3
v 0.1 2.8 -0.3
v -0.4 2.8 -0.4
v 0.2 2.8 -0.4
v -0.6 3.1 0.5
v -0.4 3.1 0.5
v -0.7 3.1 0.4
v -0.6 3.1 0.4
v -0.5 3.1 0.4
v -0.4 3.1 0.4
v -0.7 3.1 0.3
v -0.6 3.1 0.3
v -0.5 3.1 0.3
v -0.4 3.1 0.3
v -0.7 3.1 -0.2
v -0.6 3.1 -0.2
v -0.5 3.1 -0.2
v -0.4 3.1 -0.2
v -0.7 3.1 -0.3
v -0.6 3.1 -0.3
v -0.5 3.1 -0.3
v -0.4 3.1 -0.3
v -0.6 3.1 -0.4
v -0.4 3.1 -0.4
v -0.6 3.3 0.5
v -0.5 3.3 0.5
v -0.7 3.3 0.4
v -0.6 3.3 0.4
v -0.5 3.3 0.4
v -0.7 3.3 0.3
v -0.6 3.3 0.3
v -0.5 3.3 0.3
v -0.5 3.3 0.2
v -0.6 3.3 0.0999999
v -0.5 3.3 0.0999999
v -0.6 3.3 -1.19209e-07
v -0.5 3.3 -1.19209e-07
v -0.5 3.3 -0.1
v -0.7 3.3 -0.2
v -0.6 3.3 -0.2
v -0.5 3.3 -0.2
v -0.7 3.3 -0.3
v -0.6 3.3 -0.3
v -0.5 3.3 -0.3
v -0.6 3.3 -0.4
v -0.5 3.3 -0.4
v -0.5 3.4 0.5
v -0.4 3.4 0.5
v -0.2 3.4 0.5
v 5.96046e-08 3.4 0.5
v -0.6 3.4 0.4
v -0.5 3.4 0.4
v -0.4 3.4 0.4
v -0.2 3.4 0.4
v 5.96046e-08 3.4 0.4
v -0.6 3.4 0.3
v -0.5 3.4 0.3
v -0.4 3.4 0.3
v -0.5 3.4 0.2
v -0.4 3.4 0.2
v -0.5 3.4 0.0999999
v -0.4 3.4 0.0999999
v -0.5 3.4 -1.19209e-07
v -0.4 3.4 -1.19209e-07
v -0.5 3.4 -0.1
v -0.4 3.4 -0.1
v -0.6 3.4 -0.2
v -0.5 3.4 -0.2
v -0.4 3.4 -0.2
v -0.6 3.4 -0.3
v -0.5 3.4 -0.3
v -0.4 3.4 -0.3
v -0.2 3.4 -0.3
v 5.96046e-08 3.4 -0.3
v -0.5 3.4 -0.4
v -0.4 3.4 -0.4
v -0.2 3.4 -0.4
v 5.96046e-08 3.4 -0.4
v -0.4 3.6 0.5
v -0.3 3.6 0.5
v -0.2 3.6 0.5
v 5.96046e-08 3.6 0.5
v 0.1 3.6 0.5
v 0.2 3.6 0.5
v -0.5 3.6 0.4
v -0.4 3.6 0.4
v -0.3 3.6 0.4
v -0.2 3.6 0.4
v 5.96046e-08 3.6 0.4
v 0.1 3.6 0.4
v -0.5 3.6 0.3
v -0.4 3.6 0.3
v -0.3 3.6 0.3
v -0.2 3.6 0.3
v -0.4 3.6 0.2
v -0.3 3.6 0.2
v -0.4 3.6 -0.1
v -0.3 3.6 -0.1
v -0.5 3.6 -0.2
v -0.4 3.6 -0.2
v -0.3 3.6 -0.2
v -0.2 3.6 -0.2
v -0.5 3.6 -0.3
v -0.4 3.6 -0.3
v -0.3 3.6 -0.3
v -0.2 3.6 -0.3
v 5.96046e-08 3.6 -0.3
v 0.1 3.6 -0.3
v -0.4 3.6 -0.4
v -0.3 3.6 -0.4
v -0.2 3.6 -0.4
v 5.96046e-08 3.6 -0.4
v 0.1 3.6 -0.4
v 0.2 3.6 -0.4

# faces
f 5/6/1 2/6/1 1/6/1
f 6/6/1 2/6/1 5/6/1
f 7/6/1 4/6/1 3/6/1
f 8/6/1 4/6/1 7/6/1
f 15/7/1 12/7/1 11/7/1
f 16/7/1 12/7/1 15/7/1
f 17/6/1 10/6/1 9/6/1
f 18/6/1 10/6/1 17/6/1
f 19/7/1 15/7/1 11/7/1
f 20/1/1 16/1/1 15/1/1
f 20/7/1 15/7/1 19/7/1
f 21/7/1 12/7/1 16/7/1
f 21/1/1 16/1/1 20/1/1
f 22/7/1 12/7/1 21/7/1
f 23/6/1 14/6/1 13/6/1
f 24/6/1 14/6/1 23/6/1
f 25/2/1 19/2/1 18/2/1
f 26/2/1 19/2/1 25/2/1
f 27/6/1 23/6/1 22/6/1
f 28/6/1 23/6/1 27/6/1
f 33/5/1 30/5/1 29/5/1
f 34/5/1 30/5/1 33/5/1
f 35/5/1 32/5/1 31/5/1
f 36/5/1 32/5/1 35/5/1
f 37/6/1 34/6/1 33/6/1
f 38/6/1 34/6/1 37/6/1
f 39/6/1 36/6/1 35/6/1
f 40/6/1 36/6/1 39/6/1
f 51/6/1 42/6/1 41/6/1
f 52/6/1 42/6/1 51/6/1
f 53/7/1 44/7/1 43/7/1
f 54/4/1 45/4/1 44/4/1
f 54/7/1 44/7/1 53/7/1
f 55/1/1 46/1/1 45/1/1
f 55/4/1 45/4/1 54/4/1
f 56/4/1 47/4/1 46/4/1
f 56/1/1 46/1/1 55/1/1
f 57/7/1 48/7/1 47/7/1
f 57/4/1 47/4/1 56/4/1
f 58/7/1 48/7/1 57/7/1
f 59/6/1 50/6/1 49/6/1
f 60/6/1 50/6/1 59/6/1
f 61/6/1 53/6/1 52/6/1
f 62/6/1 53/6/1 61/6/1
f 63/6/1 59/6/1 58/6/1
f 64/6/1 59/6/1 63/6/1
f 65/5/1 62/5/1 61/5/1
f 66/5/1 62/5/1 65/5/1
f 67/5/1 64/5/1 63/5/1
f 68/5/1 64/5/1 67/5/1
f 74/3/1 70/3/1 69/3/1
f 75/4/1 71/4/1 70/4/1
f 75/3/1 70/3/1 74/3/1
f 76/3/1 72/3/1 71/3/1
f 76/4/1 71/4/1 75/4/1
f 77/3/1 72/3/1 76/3/1
f 79/5/1 74/5/1 73/5/1
f 80/5/1 74/5/1 79/5/1
f 81/4/1 76/4/1 75/4/1
f 82/4/1 76/4/1 81/4/1
f 83/5/1 78/5/1 77/5/1
f 84/5/1 78/5/1 83/5/1
f 85/4/1 82/4/1 81/4/1
f 86/4/1 82/4/1 85/4/1
f 87/6/1 80/6/1 79/6/1
f 88/6/1 80/6/1 87/6/1
f 89/3/1 86/3/1 85/3/1
f 90/3/1 86/3/1 89/3/1
f 91/6/1 84/6/1 83/6/1
f 92/6/1 84/6/1 91/6/1
f 103/6/1 94/6/1 93/6/1
f 104/6/1 94/6/1 103/6/1
f 105/7/1 96/7/1 95/7/1
f 106/4/1 97/4/1 96/4/1
f 106/7/1 96/7/1 105/7/1
f 106/4/1 98/4/1 97/4/1
f 106/4/1 99/4/1 98/4/1
f 107/7/1 100/7/1 99/7/1
f 107/4/1 99/4/1 106/4/1
f 108/7/1 100/7/1 107/7/1
f 109/6/1 102/6/1 101/6/1
f 110/6/1 102/6/1 109/6/1
f 111/5/1 104/5/1 103/5/1
f 112/5/1 104/5/1 111/5/1
f 113/7/1 106/7/1 105/7/1
f 114/3/1 107/3/1 106/3/1
f 114/7/1 106/7/1 113/7/1
f 115/7/1 108/7/1 107/7/1
f 115/3/1 107/3/1 114/3/1
f 116/7/1 108/7/1 115/7/1
f 117/5/1 110/5/1 109/5/1
f 118/5/1 110/5/1 117/5/1
f 123/6/1 120/6/1 119/6/1
f 124/6/1 120/6/1 123/6/1
f 125/6/1 122/6/1 121/6/1
f 126/6/1 122/6/1 125/6/1
f 127/6/2 128/6/2 131/6/2
f 131/6/2 128/6/2 132/6/2
f 129/6/2 130/6/2 133/6/2
f 133/6/2 130/6/2 134/6/2
f 135/3/2 136/3/2 137/3/2
f 137/3/2 136/3/2 138/3/2
f 139/5/2 140/5/2 141/5/2
f 141/5/2 140/5/2 142/5/2
f 141/6/2 142/6/2 143/6/2
f 143/6/2 142/6/2 144/6/2
f 139/5/2 141/5/2 145/5/2
f 141/6/2 143/6/2 145/6/2
f 145/6/2 143/6/2 146/6/2
f 144/6/2 142/6/2 147/6/2
f 142/5/2 140/5/2 148/5/2
f 147/6/2 142/6/2 148/6/2
f 146/6/2 143/6/2 149/6/2
f 145/5/2 146/5/2 149/5/2
f 143/5/2 144/5/2 150/5/2
f 149/6/2 143/6/2 150/6/2
f 144/6/2 147/6/2 151/6/2
f 150/5/2 144/5/2 151/5/2
f 147/5/2 148/5/2 152/5/2
f 151/6/2 147/6/2 152/6/2
f 149/5/2 150/5/2 153/5/2
f 145/5/2 149/5/2 153/5/2
f 151/5/2 152/5/2 153/5/2
f 150/5/2 151/5/2 153/5/2
f 139/5/2 145/5/2 153/5/2
f 148/5/2 140/5/2 154/5/2
f 153/5/2 152/5/2 154/5/2
f 152/5/2 148/5/2 154/5/2
f 157/6/3 156/6/3 155/6/3
f 161/6/3 157/6/3 155/6/3
f 161/6/3 158/6/3 157/6/3
f 162/6/3 158/6/3 161/6/3
f 165/6/3 161/6/3 160/6/3
f 165/6/3 162/6/3 161/6/3
f 165/6/3 163/6/3 162/6/3
f 166/6/3 163/6/3 165/6/3
f 167/5/3 164/5/3 163/5/3
f 167/6/3 163/6/3 166/6/3
f 168/5/3 164/5/3 167/5/3
f 169/5/3 166/5/3 165/5/3
f 169/6/3 167/6/3 166/6/3
f 169/6/3 168/6/3 167/6/3
f 170/6/3 168/6/3 169/6/3
f 171/6/3 168/6/3 170/6/3
f 172/5/3 170/5/3 169/5/3
f 174/5/3 160/5/3 159/5/3
f 174/6/3 165/6/3 160/6/3
f 175/5/3 172/5/3 169/5/3
f 175/6/3 165/6/3 174/6/3
f 175/5/3 169/5/3 165/5/3
f 176/6/3 173/6/3 172/6/3
f 176/5/3 172/5/3 175/5/3
f 177/6/3 173/6/3 176/6/3
f 178/5/3 175/5/3 174/5/3
f 178/5/3 174/5/3 159/5/3
f 178/5/3 177/5/3 176/5/3
f 178/5/3 176/5/3 175/5/3
f 179/5/3 177/5/3 178/5/3
f 182/6/3 181/6/3 180/6/3
f 183/6/3 181/6/3 182/6/3
f 188/2/3 184/2/3 183/2/3
f 189/2/3 184/2/3 188/2/3
f 193/5/3 186/5/3 185/5/3
f 194/6/3 187/6/3 186/6/3
f 194/5/3 186/5/3 193/5/3
f 195/6/3 187/6/3 194/6/3
f 196/6/3 190/6/3 189/6/3
f 197/5/3 191/5/3 190/5/3
f 197/6/3 190/6/3 196/6/3
f 198/5/3 191/5/3 197/5/3
f 201/4/3 200/4/3 199/4/3
f 202/4/3 200/4/3 201/4/3
f 203/3/3 193/3/3 192/3/3
f 204/3/3 193/3/3 203/3/3
f 207/6/3 206/6/3 205/6/3
f 208/6/3 206/6/3 207/6/3
f 213/6/3 209/6/3 208/6/3
f 214/6/3 209/6/3 213/6/3
f 217/5/3 211/5/3 210/5/3
f 218/6/3 212/6/3 211/6/3
f 218/5/3 211/5/3 217/5/3
f 219/6/3 212/6/3 218/6/3
f 220/6/3 212/6/3 219/6/3
f 221/6/3 215/6/3 214/6/3
f 222/5/3 216/5/3 215/5/3
f 222/6/3 215/6/3 221/6/3
f 223/5/3 216/5/3 222/5/3
f 224/6/4 225/6/4 226/6/4
f 226/6/4 225/6/4 227/6/4
f 227/2/4 228/2/4 232/2/4
f 232/2/4 228/2/4 233/2/4
f 229/5/4 230/5/4 236/5/4
f 230/6/4 231/6/4 237/6/4
f 236/5/4 230/5/4 237/5/4
f 237/6/4 231/6/4 238/6/4
f 238/6/4 231/6/4 239/6/4
f 233/6/4 234/6/4 240/6/4
f 234/5/4 235/5/4 241/5/4
f 240/6/4 234/6/4 241/6/4
f 241/5/4 235/5/4 242/5/4
f 243/6/4 244/6/4 245/6/4
f 245/6/4 244/6/4 246/6/4
f 246/6/4 247/6/4 251/6/4
f 251/6/4 247/6/4 252/6/4
f 248/5/4 249/5/4 256/5/4
f 249/6/4 250/6/4 257/6/4
f 256/5/4 249/5/4 257/5/4
f 257/6/4 250/6/4 258/6/4
f 252/6/4 253/6/4 259/6/4
f 253/5/4 254/5/4 260/5/4
f 259/6/4 253/6/4 260/6/4
f 260/5/4 254/5/4 261/5/4
f 262/4/4 263/4/4 264/4/4
f 264/4/4 263/4/4 265/4/4
f 255/3/4 256/3/4 266/3/4
f 266/3/4 256/3/4 267/3/4
f 268/6/4 269/6/4 270/6/4
f 268/6/4 270/6/4 274/6/4
f 270/6/4 271/6/4 274/6/4
f 274/6/4 271/6/4 275/6/4
f 273/6/4 274/6/4 278/6/4
f 274/6/4 275/6/4 278/6/4
f 275/6/4 276/6/4 278/6/4
f 278/6/4 276/6/4 279/6/4
f 276/5/4 277/5/4 280/5/4
f 279/6/4 276/6/4 280/6/4
f 280/5/4 277/5/4 281/5/4
f 279/6/4 280/6/4 282/6/4
f 280/6/4 281/6/4 282/6/4
f 282/6/4 281/6/4 283/6/4
f 279/6/4 282/6/4 284/6/4
f 272/5/4 273/5/4 286/5/4
f 273/6/4 278/6/4 286/6/4
f 278/5/4 279/5/4 287/5/4
f 286/6/4 278/6/4 287/6/4
f 284/6/4 285/6/4 288/6/4
f 287/5/4 279/5/4 288/5/4
f 279/6/4 284/6/4 288/6/4
f 288/6/4 285/6/4 289/6/4
f 286/5/4 287/5/4 290/5/4
f 272/5/4 286/5/4 290/5/4
f 288/5/4 289/5/4 290/5/4
f 287/5/4 288/5/4 290/5/4
f 290/5/4 289/5/4 291/5/4
f 294/3/5 293/3/5 292/3/5
f 295/3/5 293/3/5 294/3/5
f 296/4/5 295/4/5 294/4/5
f 297/3/5 293/3/5 295/3/5
f 297/4/5 295/4/5 296/4/5
f 298/3/5 297/3/5 296/3/5
f 299/3/5 293/3/5 297/3/5
f 299/3/5 297/3/5 298/3/5
f 303/5/5 301/5/5 300/5/5
f 304/5/5 301/5/5 303/5/5
f 305/5/5 303/5/5 302/5/5
f 306/5/5 303/5/5 305/5/5
f 309/5/5 308/5/5 307/5/5
f 310/5/5 308/5/5 309/5/5
f 311/5/5 301/5/5 304/5/5
f 312/5/5 311/5/5 310/5/5
f 313/5/5 301/5/5 311/5/5
f 313/5/5 311/5/5 312/5/5
f 317/6/5 315/6/5 314/6/5
f 318/6/5 315/6/5 317/6/5
f 319/6/5 315/6/5 318/6/5
f 320/6/5 317/6/5 316/6/5
f 321/7/5 318/7/5 317/7/5
f 321/6/5 317/6/5 320/6/5
f 322/7/5 318/7/5 321/7/5
f 325/7/5 323/7/5 322/7/5
f 325/7/5 322/7/5 321/7/5
f 326/7/5 323/7/5 325/7/5
f 327/7/5 323/7/5 326/7/5
f 328/6/5 325/6/5 324/6/5
f 329/7/5 326/7/5 325/7/5
f 329/6/5 325/6/5 328/6/5
f 330/7/5 326/7/5 329/7/5
f 332/6/5 331/6/5 330/6/5
f 332/6/5 330/6/5 329/6/5
f 333/6/5 331/6/5 332/6/5
f 334/6/6 335/6/6 337/6/6
f 337/6/6 335/6/6 338/6/6
f 336/6/6 337/6/6 339/6/6
f 339/6/6 337/6/6 340/6/6
f 340/7/6 341/7/6 342/7/6
f 340/7/6 342/7/6 343/7/6
f 343/7/6 342/7/6 344/7/6
f 343/1/6 344/1/6 345/1/6
f 345/1/6 344/1/6 346/1/6
f 345/7/6 346/7/6 347/7/6
f 345/7/6 347/7/6 349/7/6
f 349/7/6 347/7/6 350/7/6
f 348/6/6 349/6/6 351/6/6
f 351/6/6 349/6/6 352/6/6
f 352/6/6 353/6/6 354/6/6
f 354/6/6 353/6/6 355/6/6
f 356/6/6 357/6/6 361/6/6
f 361/6/6 357/6/6 362/6/6
f 358/5/6 359/5/6 363/5/6
f 363/5/6 359/5/6 364/5/6
f 360/2/6 361/2/6 365/2/6
f 365/2/6 361/2/6 366/2/6
f 366/7/6 367/7/6 368/7/6
f 368/7/6 367/7/6 369/7/6
f 368/4/6 369/4/6 370/4/6
f 370/4/6 369/4/6 371/4/6
f 370/1/6 371/1/6 372/1/6
f 372/1/6 371/1/6 373/1/6
f 372/4/6 373/4/6 374/4/6
f 374/4/6 373/4/6 375/4/6
f 374/7/6 375/7/6 377/7/6
f 377/7/6 375/7/6 378/7/6
f 376/6/6 377/6/6 379/6/6
f 379/6/6 377/6/6 380/6/6
f 380/6/6 381/6/6 384/6/6
f 384/6/6 381/6/6 385/6/6
f 382/6/6 383/6/6 386/6/6
f 386/6/6 383/6/6 387/6/6
f 388/5/6 389/5/6 395/5/6
f 389/6/6 390/6/6 396/6/6
f 395/5/6 389/5/6 396/5/6
f 396/6/6 390/6/6 397/6/6
f 391/6/6 392/6/6 398/6/6
f 392/5/6 393/5/6 399/5/6
f 398/6/6 392/6/6 399/6/6
f 394/5/6 395/5/6 400/5/6
f 396/7/6 397/7/6 401/7/6
f 400/5/6 395/5/6 401/5/6
f 395/7/6 396/7/6 401/7/6
f 401/7/6 397/7/6 402/7/6
f 397/4/6 398/4/6 403/4/6
f 402/7/6 397/7/6 403/7/6
f 401/7/6 402/7/6 404/7/6
f 402/4/6 403/4/6 405/4/6
f 404/7/6 402/7/6 405/7/6
f 404/3/6 405/3/6 406/3/6
f 405/4/6 403/4/6 407/4/6
f 406/3/6 405/3/6 407/3/6
f 406/7/6 407/7/6 409/7/6
f 407/4/6 403/4/6 410/4/6
f 409/7/6 407/7/6 410/7/6
f 403/4/6 398/4/6 411/4/6
f 410/4/6 403/4/6 411/4/6
f 408/5/6 409/5/6 412/5/6
f 409/7/6 410/7/6 413/7/6
f 412/5/6 409/5/6 413/5/6
f 410/7/6 411/7/6 413/7/6
f 413/7/6 411/7/6 414/7/6
f 411/4/6 398/4/6 415/4/6
f 414/7/6 411/7/6 415/7/6
f 398/7/6 399/7/6 416/7/6
f 415/4/6 398/4/6 416/4/6
f 399/5/6 393/5/6 417/5/6
f 416/7/6 399/7/6 417/7/6
f 413/5/6 414/5/6 418/5/6
f 414/6/6 415/6/6 419/6/6
f 418/5/6 414/5/6 419/5/6
f 419/6/6 415/6/6 420/6/6
f 416/6/6 417/6/6 421/6/6
f 417/5/6 393/5/6 422/5/6
f 421/6/6 417/6/6 422/6/6
f 422/5/6 393/5/6 423/5/6
